<svg xmlns="http://www.w3.org/2000/svg" viewBox="0 0 311.84 413.73"><defs><style>.cls-1{fill:#bb2221;}.cls-2{fill:#1c1c1c;}.cls-3{fill:#8a2626;}.cls-4{fill:#e2a847;}.cls-5{fill:#af8755;}.cls-6{fill:#1d1d1b;}.cls-7{font-size:36px;font-family:Albertson;}.cls-7,.cls-8{fill:#f4eed7;}</style></defs><g id="Capa_2" data-name="Capa 2"><g id="Capa_1-2" data-name="Capa 1"><path class="cls-1" d="M164.67,409.73c-38,0-73.88-15.09-101-42.5a143.28,143.28,0,0,1-42-101.37V171.7a20,20,0,0,1,20-20H287.7a20,20,0,0,1,20,20v95.35c0,78.53-64,142.54-142.74,142.68Z"/><path class="cls-2" d="M287.69,155.73a16,16,0,0,1,16,15.94v95.38c0,76.51-62.09,138.55-138.74,138.68h-.25c-76.48,0-139-63.53-139-139.87V171.7a16,16,0,0,1,16-16Zm0-8H41.63a24,24,0,0,0-24,24v94.16A145.93,145.93,0,0,0,29.26,323,149.56,149.56,0,0,0,107.52,402a143.81,143.81,0,0,0,57.15,11.77h.26a146.11,146.11,0,0,0,98.58-38.1c31-28.16,48.15-68.48,48.15-110.36V171.65a24,24,0,0,0-24-23.92Z"/><path class="cls-2" d="M287.69,164.73a7,7,0,0,1,7,7v95.37c0,71.38-58.21,129.55-129.76,129.68h-.23c-34.49,0-67.09-13.72-91.78-38.64a130.34,130.34,0,0,1-38.23-92.22V171.7a7,7,0,0,1,7-7Zm0-4H41.63a11,11,0,0,0-11,11v94.17a134.36,134.36,0,0,0,39.38,95c25.45,25.68,59.06,39.82,94.63,39.82h.23c73.76-.13,133.76-60.1,133.76-133.68V171.67a11,11,0,0,0-11-10.94Z"/><path class="cls-2" d="M309.29,161.84a24.89,24.89,0,0,0-5.51-7.88c-2.66-2.67-17.46-17.51-25.78-28.4A103.75,103.75,0,0,1,270.34,114l1.3.12a9.32,9.32,0,0,1,1.32,0,11.78,11.78,0,0,1,1.33.16,16.68,16.68,0,0,0,6.52-.88s-7-1.49-6.92-1.64a9.67,9.67,0,0,1,3.71-1.13c1.6-.1,3.37.62,4.31-.36s4-4.15,2.44-5.27-3.54,1.33-5.43.66a53.25,53.25,0,0,0-7.58-2.71c7.14.46,9.08-3.48,7.81-4.46s-3.16.57-5.26.16-4.1.41-8.81-.87-8.25-5.89-8.25-5.89S263.7,93,265.14,93s1.33-.76,5.31-1.17,10.3-6.26,10.3-6.26-2.66,1.45-8.59,1.34a26.37,26.37,0,0,0,7-7A18.26,18.26,0,0,0,281,76.75s-8.06,4.88-10.34,5.38-9.51-.69-11.63-.69-4.27-.5-7.26-2.73c5.52-.35,6.72-1.38,6.72-2.11s-1.2-1.69-1.2-1.69a35,35,0,0,0,8.55-3.23c4.07-2.27,5.28-7.15,5.28-7.15a12.46,12.46,0,0,1-2.83,2.85,25.11,25.11,0,0,1-7,1.8A5.25,5.25,0,0,1,257,68c-1.66-1.26-4-1.42-4.9-1.65s-2.12-1.88-.83-2.46,1.45,1.31,6.06.2,5.94-5.31,8.26-8.92c-.58.46-2.53,2.19-4.07,2.58a55.56,55.56,0,0,1-6.27.61,5,5,0,0,0-2.69-1.54c1.82-.46,4.11-2.68,6-5.26a15.59,15.59,0,0,1-10.34,2.42c-.08-1.61-1-1.61-1.33-1.88s-.08-2,1-4.38-.83-3.92-.49-5.57a18.6,18.6,0,0,0-.38-6c-.33-1.65-2.49-2-2.74-3.42s.33-3.19-.79-3.3-1.53,3.61-1,5a16,16,0,0,1-.21,7.61,6.85,6.85,0,0,0,.16,5.49c.75,1.46.29,3.27.29,4s-.87,1.69-1.82,2.12-4.32,1.49-3.95,3.57,1.58,2,6.56,3.53c-.37,1-2.28,1.65-5.6,2.46a14,14,0,0,0-5.69,3.07s-2.7-.8-2.87.93,1.71,2,4.7,2a38.81,38.81,0,0,1,4.69.23,6.88,6.88,0,0,1-2.41,2.08A10.88,10.88,0,0,1,232,73c-1.33.23-2.41,2.8-.12,3.57s3.86-.66,7.06-.27,3.2-1.42,3.57-1.15.62,2.38-.71,4-5.52,4-6.68,4.15S230,86.16,226,89.54c5.32.85,6.69-1.65,8.93-.92s6.44-.85,6.44-.85S233.79,91.39,234,93s7.76.88,7.76.88a74.83,74.83,0,0,1-7.35,5.54,15.06,15.06,0,0,1-6.64,1.92s4.07-2.65,4.82-3.19a1.48,1.48,0,0,0-.42-2.54c-1.24-.42-6.27-.3-8.93-.84a24.3,24.3,0,0,1-5.94-2.46s2.29-1.23,2.41-1.81,0-3.3-1.12-3.84-1.95.42-3.65.31a16.45,16.45,0,0,1-6-2.41,18.27,18.27,0,0,1-3.54-.89c0-.62-.06-1.14-.07-1.56l-.51-.4a4,4,0,0,0,.51.19,10.43,10.43,0,0,1,.07-1.46,12.09,12.09,0,0,0,1.46,1.83c3.32.66,9.21,1.12,11.45.55,2.87-.73,5.07-.65,8.47-2.34a13.66,13.66,0,0,1-9.42-1c4.69-1.88,4.69-4.07,4.15-4.84s-1.66-.43-2.91-.39a9.47,9.47,0,0,1-4.73-.42,52.3,52.3,0,0,0-5.52-1.38s6.23-1.35,8.26-2.65,4-2.85,3.24-4.88a15.27,15.27,0,0,0,5.36-2,152.84,152.84,0,0,1-16.95,0c-4.65-.38-6.81-.3-8-1.27a17.87,17.87,0,0,0-3.16-1.84s-.33-1.92.38-2.19,3.57.81,7.06.92a32.1,32.1,0,0,0,7.8-1,27.66,27.66,0,0,1-5.1-.81,10.47,10.47,0,0,1-3.45-2.34,19,19,0,0,0,3.65,1c1.75.23,3.28-.89,5.78-2.19s2.82-3.15,1.7-5c1.2-.84,2.45-3.8,2.45-3.8s-2.91,2.84-5.11,3.27-3.86.69-5.55.19-3.09-.19-4.75-.23-3.65-1.08-6.31-4c1.12,1,4,.66,5.57-.07s4.85-3.19,5.35-4.23-.5-2-1.24-2.19-1,.35-2.5,1-2.53.77-2.69.38.66-.84,2-1.15,2.36-1.65,3-3.46a4.94,4.94,0,0,0-.79-4.26c-.42-.5-1.41-.81-2.28.35a7.73,7.73,0,0,1-3.66,2.61c-1.12.23-2.41-.27-5.48-1,1.74-.31,3.82-2.61,3.82-2.61s-4.65.46-4.94.34-1-1.61-.54-2.07S193.64,23,194.42,22a2.58,2.58,0,0,0,.54-2.53c-.25-.24-2.41,3.18-2.65,3s-.42-2.76-.46-4.57a16.8,16.8,0,0,0-1-4.88,30.42,30.42,0,0,1-.7-6.49A52.15,52.15,0,0,0,189.07,0s-.83,7.22-1.37,9.22-.38,4.46-.38,7.11-1.08,5.18-1.28,7.49a15.29,15.29,0,0,0,.85,5.3,27.41,27.41,0,0,1-5.63,1.67,29.7,29.7,0,0,1-5.69-.67,10.31,10.31,0,0,0,4.61,2.38c-2.28,1-5.69.31-5.69.31s.29,1.53,3.74,3,4.4.61,4.94,1.19,6.6,5,6.4,5.84-3.16,3.11-4.78,3.46a26.85,26.85,0,0,1-11.88-1c2.62,3.57,8.43,3.88,8.43,3.88s-5.77.57-7.89-.23a9.24,9.24,0,0,0-3.77-.66s1.61,3.11,3.69,3.54a21.71,21.71,0,0,1,4.9,1.42c2.37.92,6.64.15,6.64.15s-6.68,5.07-11.91,6c1.28,1.92,3.57,2.18,7.93,1.84A41.42,41.42,0,0,0,190.44,59a15.82,15.82,0,0,1-4.36,4.58c-3,2.07-4.07,1.76-5.4,1.61a5,5,0,0,0-4,1,10.05,10.05,0,0,1-5.15,2c-2.07.23-3.44.16-4.65-.73a6.81,6.81,0,0,0-3.36-.88l0-.54s.71.35,3.57-.11a4.31,4.31,0,0,0,3.49-3.08,3.94,3.94,0,0,1-2.12.89c0-1.62-1.91-2.19-3.24-4.27s-.16-2.19-1.45-4.3-.87-2.88-1-5.38-.79-2.8-1-4.34a44.87,44.87,0,0,1,0-5.91s-2.37,4.72-2.37,6.64.17,5.84-.29,7.38a23.06,23.06,0,0,1-2.74,4.57,21,21,0,0,1-.21-4.07c-2,2.92-.42,6.6-.42,6.6a9.61,9.61,0,0,1-2-3.41,7.46,7.46,0,0,0,4.11,7.52,15.69,15.69,0,0,1-2.74,1.77,2.34,2.34,0,0,0-1.45,2.35s-.79-.85-2.28-2.31c.85,3.55,2.11,5.07,6.47,6.19-1.16,0-2.78,1.72-4.56,1.72s-4.9-1.46-5.53-1.65-2-.27-1.16,1.62A10.8,10.8,0,0,0,150,78a18.58,18.58,0,0,0-3.07-.85c2.62,3.5,8.68,5.26,9,5.88a7.66,7.66,0,0,1-.41,5.07c-.83,1.5-8.8,6-10.51,6S138.41,91,138.41,91s3-.08,7.1-.5a9.29,9.29,0,0,0,6-2.64,14.81,14.81,0,0,1-3.21,0c3-1.69,4.32-3.58,3.65-3.81s-6.09.33-8.91,0-6.48-2.79-6.48-2.79,5.32-2.69,5.54-4c1.52-.11,2.63-2.08,2.43-2.64a1.45,1.45,0,0,0-2.13-.41c-.8.61-1.63.38-2.79.28s-2.72-1.31-2.58-1.64,1.55,0,2.44-.15.8-1.23,1.94-1.23a4,4,0,0,0,2.85-1c.77.23,1.8.41,2.18-.41a1.82,1.82,0,0,0-.19-1.66s1.66-1.49,1.47-2.79a5,5,0,0,0,3-2.79,8.48,8.48,0,0,1-5.14,1.79c-2,0-3.27.44-4.49.44s-5,.48-4.9-.06,1.47-1.46,3.35-1.89,3.36-1.38,3.64-2.15-.53-1.94-1.29-1.59a3.52,3.52,0,0,1-2,.35c-.64-.07-1.32-1-2.41-.91s-1.85-.25-1.77-.58.37-.19,2.07-1.2a4.63,4.63,0,0,0,2-3.06,3.46,3.46,0,0,1-1.54.87c-.26-.49-1.47-.45-2.05-.45s-1.71-.47-1.77-.87.93-.63,1.61-1.06,1.78-1.22,1.56-2-1.44-.87-1.84-1.11-1.43-.85-1.43-1.44.31-1.33.36-2.59a7.67,7.67,0,0,0-.47-3.66c-.52-1.13-.27-4.15-.27-4.15a8.44,8.44,0,0,0-.75,3.59c.05,1.94-.36,6.58-1.08,7.06s-2.05,1.18-2.19,2.46,1.88,2.08,1.88,2.08-2.4.28-3.07,1.48,1.3,3.49,1.3,3.49-1,0-2.18-.08a10.91,10.91,0,0,1-3-.9s-.23.85,1.82,1.79a1.64,1.64,0,0,0-1.55,1.22,15.64,15.64,0,0,1-3.28-2.69c1.5,5.26,8.93,6.9,8.93,6.9a3.85,3.85,0,0,1-1.44.75,20.56,20.56,0,0,1-3.82.12c-1.77,0-2.93,1.31-2.91,2.08s.83,2.18,3,1.87c-.11.66,1.42,1.15,3.35,2a23.51,23.51,0,0,0-6.86.66,11.14,11.14,0,0,1-3.74-.18l.91,3.64s1.58.1,2,.9,2.15.76,2.15.76a5.14,5.14,0,0,1-3.33.85c1.37,1.92,8.3.12,8.3.69s-3.69,2.69-5.39,3.23a8.13,8.13,0,0,1-3.26.14c.22-1,.23-1.83-.19-2-.89-.33-2.8.26-4.26.85a9.21,9.21,0,0,1-4.1,0s2.21-.51,2.66-1.46c-1.86-.31-3.55-2.56-4.35-2.66s-2.16.87-3.1.74-.89-.82-1.25-1.61.31-1.28,0-2.44-1.8-2.07-2.18-2.79a13.18,13.18,0,0,1-.5-4.27c0-1.39.55-6.2-.53-6.18s-.58,1.64-.66,3.64-.58,2.31-.89,3.61.53.62.22,2.23a8.77,8.77,0,0,1-2.24,4.51c-1,0-1.8,1.25-2.6,1.76S94.7,76.79,95.31,77s1.08.77.8,1-.31.87.53,1a1.79,1.79,0,0,1,1.1,2.12c-.3.54-3.68.1-5.12.26s-2.27.94-3.13.69-2-1.1-2.46-.51.11,1.23.28,1.76.8,1,.8,1.87c-3-.33-5.81,1.15-6.56,1.18s-1.69-.1-2,.23-.66.62-1.6.26a6.34,6.34,0,0,0-2.52-.13s1.22-1.51,2.57-3.41.36-2.71.53-3.27,3-1.9,3.15-4.1c-.88.1-3,1.84-3,1.84s.58-1.43,1-2.35a4.45,4.45,0,0,0,0-2.92c-.22-.23-1-.41-.22-1a4.2,4.2,0,0,0,1-2.23s-6.34,5.33-6.73,5.22S73,73.1,73,73.1a15.24,15.24,0,0,0,2-.26c.74-.17,1.46-1.84,1.46-2.4s-1.3-.31-1.49-.51.3-.31.77-.72.09-1.95-1.19-2.33S71.11,65.7,70.78,65a4.42,4.42,0,0,1,0-2.15A14.54,14.54,0,0,1,75,64.09a12,12,0,0,0,10.85.2c-2.38.54-6.37-.1-7.89-1.66,1.41.23,3.57-1.1,4.1-3.46s-.58-2.31-1.36-2a3.32,3.32,0,0,1-3-.31c-.63-.64-2.35-.79-2.65-1.38a11.26,11.26,0,0,0-2.08-1.9A2.15,2.15,0,0,1,72.16,51a6.69,6.69,0,0,0,5.68.23A7.34,7.34,0,0,0,75.29,50c.92,0,5.18-3.2,4.57-4.74s-4.62-1.2-5.62-.85a6.22,6.22,0,0,1-3.6-.26c-.79-.35-.37-.66-.41-1.2s-.67-.23-.83-1,.24-1.5.95-1a2.47,2.47,0,0,0,3-.27c1.12-.88,1.78-2.65.83-3.19a7.28,7.28,0,0,1-2.78-3.11,3.27,3.27,0,0,0-2.58-1.57s.09-4.88,0-7.23-.25-8.64-.79-8.64-.25,4.73-.29,6.42a17.44,17.44,0,0,1-1.39,5.45,11.15,11.15,0,0,0-.41,3.9,4.32,4.32,0,0,0-3.26-1,3.93,3.93,0,0,1,2.11,3.15c-.18.25-2,1.59-2,2.88-1.87-.81-5,0-5,0s3.38.42,4.5,1.83c-3-.22-4.13,1.27-4.13,1.27s1.74-.21,3.63-.31,3.93.21,4.57,1a5.88,5.88,0,0,1-4.66,2.84c-1.3,0-2.29,1-3.23,1s-1.89.46-4.49.62a10.82,10.82,0,0,0,3.35.66c1,0,1.27.87,2.74,1.18s1.69.13,3.1,1.28,3.16,1.13,3.18,1.41-.52.89-1.66,1.12a28.78,28.78,0,0,1-4.87.8c-1.41,0-2.13.64-3.38.79s-3.35-.59-3.87,0-.36,1.54,1.44,2.38,5.17,2.21,5.17,2.21-2,1-2.9,1.61a7.77,7.77,0,0,1-4,1.08c-2.11.15-5.15,0-5.15,0a7.26,7.26,0,0,0,2.74,1.44,2.66,2.66,0,0,1,2,1.07c.58.56,5.46.62,8.45.62s4-1,4-1-.31,1.41-1.31,1.56-1.1.57-3,1.44-2.49.89-5.31.87a72.22,72.22,0,0,1-7.89-.77c3,2.66,9,2.31,9,2.31a13.37,13.37,0,0,1-5.07,1.38c3.38,1.38,6.2.13,7,.25s1.8,1,3,1.36,1.58,1.21,3,1.77,2.69.31,2.58.56-1.06.23-2.08.41S62.31,75,60.23,75.12s-5-.92-5.78-.53-.25,2.66.55,4,4.51,2.41,6.7,2.74,3.52,1.28,3.57,2.1-4,3-5.76,3.38-3-.15-4.76,0a2.46,2.46,0,0,0-2.13,3.61c1,1.72,4.84,3.59,4.84,3.59a8.33,8.33,0,0,1-3.35.54c-1.41-.21-4,.12-2.35,2,1.06,1.25,4.69,1.92,7.14,2.24l-.25.17a43.41,43.41,0,0,1-5.28,3.36,65.26,65.26,0,0,1-7.6,2.54s2.34-2.83,2-3.73-1.31-1.32-3.15-.91c4.59-2,4-4.77,3.65-5s-1-.18-1.88.43a11.43,11.43,0,0,1-5.37,1,22.76,22.76,0,0,1-3.74-1.28,7.45,7.45,0,0,0,2.55,0,5.68,5.68,0,0,1,2.41-.82c1.32-.11,2.76-1.67,1.71-4,4.24-.41,7.78-4.28,7.2-4.53s-2.71,1.92-4.62,2c1-2.44,1.52-5.61.16-5.89s-2.32,2-3.21,2.17-1.91,1-2.9,1.16-1.28,0-5.28-.21a5.81,5.81,0,0,0,4.47-4.51c.33-1.81,0-2.66-.63-2.84s-1.28.49-1.94.49A5.55,5.55,0,0,1,35,77.84a8,8,0,0,0-3,0,15.54,15.54,0,0,0,3.07-2.67c.64-1,2.27-2.22,5.15-4.71-.86-.13-3.51,1.16-3.51,1.16a2.65,2.65,0,0,0-1.36-1.57c-1-.38-3.68.77-3.87.69s-.36-.33-.2-1c.72,0,1.94-2.87,2.11-4.15s.27-4.45-.28-5.17a2.69,2.69,0,0,1-.78-2.36c.23-1-.38-1.94-2-3.58,0,0-.36,6.5-.47,7.07s-.42.61-1.47,2.81-.33,7.48-1,6.47A4,4,0,0,0,24,69.32a1.37,1.37,0,0,0-.83,2.24c.5.67,2,2.69,3.2,4.5s.59,2.88.59,2.88a11.37,11.37,0,0,0-3,1.31c-2.1,1.15-.91,4.07-.91,4.07a9,9,0,0,0-3.85-.87c2.38,2.28,7.67,3.12,7.67,3.12S22.14,88,19.37,87.72s-9.1-.25-9.24-.25,6,3.43,6,3.43-2.66-.64-4.29.1c1.68,1.56,6.33,1.61,6.33,1.61a11.46,11.46,0,0,0,4.63,1.21c0,1.2,3.24,2.64,3.24,2.64S20.87,98.71,19.1,99s-2.61-.93-3.66-.11-.22,2.56,1.83,2.62c-1.44.3-8.08,1.84-8.08,1.84a46.83,46.83,0,0,1,6.2.87c.94.41,5-.15,6.81-.15s1.49,1,1.16,1.69-5.32,2.35-8.08,2.66-6.09.77-6.09.77a10.54,10.54,0,0,1,4.37,1.43,31.37,31.37,0,0,0,6.92,2.31l-4.32,1.48a62.72,62.72,0,0,1,10.35,1,39.31,39.31,0,0,1-14.45,5.89c1,.71,7.37,3.53,12.74.66-1.72,2.31-7.7,5-10.35,5a8.44,8.44,0,0,1-4.93-2s.11,3.79,5,5.43a28.59,28.59,0,0,0-5.93,1,52.82,52.82,0,0,0,12.38.63,14.32,14.32,0,0,1-4,.67,10.19,10.19,0,0,0,7.79.61,7.1,7.1,0,0,0-2.42,1.29,8.16,8.16,0,0,0-2.71,5.83,20.56,20.56,0,0,1-3,.85,58,58,0,0,1-7.52.62A20.48,20.48,0,0,0,14.06,144c-4.92,1.13-7.69,0-7.69,0s4,3.82,13.23,2.51c-4.79,3.08-6.28,3.61-8.91,4.2s-8.67.16-8.67.16a5.83,5.83,0,0,0,3.13,2.89c2.05.59,2.41,1.59,4.65,1.36a17.27,17.27,0,0,1-6.2.59s3.46,1.84,6.45,1.43,3.63-.13,4.79.59,3,1.26,3.4,1.74.25,1.33-1.49,2.31-2.55,1.84-4.76,2.3-3.74,1.15-6.15.95S0,164.7,0,164.7s2.8,3.54,5.58,4.54a37.39,37.39,0,0,0,5.31,1.46s-4.19,1.5-7.64.73c3.2,2.22,10.05,2.65,16.41,1.75v2.7a15.06,15.06,0,0,1-3.95.55c-2.33.07-10.67-.24-10.67-.24a7,7,0,0,0,4.65,2.73c3.28.58,4.61,1,6.31,2.11a7.17,7.17,0,0,0,3.66.94v.36c-1.55,1.13-6.61,4.46-11,3.28,2,1.59,6.4,2,11,1.64v21.28l27.23,13.31c1.16-.32,7.59-14,8.75-14.27,11.62-12.08,27-20.14,41.71-27.94,8-4.22,15.76-8.44,24.32-11.37,9.67-3.3,19.71-5.31,29.76-7.07,7.56-1.33,15.16-2.5,22.7-3.94,10.52-3.59,11.19,7.8,18.11,10a10.28,10.28,0,0,0,5.91-.22c14.59-3.47,56-3.45,65.52-3.44a178.8,178.8,0,0,1,47.55,6.63A24.39,24.39,0,0,0,309.29,161.84ZM61.19,111.32a43.76,43.76,0,0,0,4.08-2.8,11,11,0,0,0,5.18,0S65.43,111.59,61.19,111.32Zm8.87,7.26a13.75,13.75,0,0,1-4.55-2.88,8.11,8.11,0,0,0,7-1.73C72.55,115.51,70,116.35,70.06,118.58Zm3.45-18L74,98.89c1,.13,1.62.18,1.62.18ZM93,92.12l4.09.8a46.69,46.69,0,0,0-7.32,1.42A13.48,13.48,0,0,0,93,92.12Zm8.8,11.67c.35.81-3.81,7.84-3.81,7.84s1.2-7,.23-7.91-4.79-1.46-4.79-1.46c3.19-.77,5.34-5.3,5.34-5.3a6.3,6.3,0,0,0,2.49,1.19c-1.33,1.23-.24,2.61.74,3.07C101.09,102,101.48,103,101.83,103.79Zm33.1-10.3c.67.61-2.55,3.84-8.47,6,4.26-2.77,6.39-7.33,5.09-8s-2.44.89-3.79.63a10.13,10.13,0,0,0-2.54-.53c-.88,0-1.46-1.13-2.6-1a6.06,6.06,0,0,1-1.92-.11s3.84-2.35,4.83-2.2,1.14,1.54,4.1,1.79,4.46.82,6.65.77C134.25,91.49,134.25,92.87,134.93,93.49Zm-.24-10.29a8.06,8.06,0,0,1-5.22,1.07,5.44,5.44,0,0,0,.85-1.73c2.28.77,6-.15,7.39-.57A16.47,16.47,0,0,0,134.69,83.2Zm39.4-3.91c-1.2,0-2.65-1.12-2.14-1.27s2,.11,3.08-.89,2.33-2.65,2.37-3.3a1.37,1.37,0,0,1,1.68-1c.85.16,4,.89,5.49.39-2.65-.77-3.31-2-3.31-2l6.58.61C184.14,74.87,175.3,79.32,174.09,79.29Zm11.45,2.26a41.2,41.2,0,0,1-4.23,2.28s1.35-2.79.49-3.87c0,0,2.75-.51,6.18-1.2C186,79.48,186.4,80.89,185.54,81.55Zm12.77,26.79-3.41-3.47a4.78,4.78,0,0,1,1.31-1.1,1.75,1.75,0,0,1,1.92.48C198.66,104.73,198.33,108.15,198.31,108.34Zm31,15.31c-1.71-.34-2.14-.65-3.19.31s2.1,4.69,2.1,4.69-3.78-1.85-5.14-2.46-2.84,1.07-3.54.38c-1.48-1.46-2-2.49-1.91-2.88s1.91-1.19,4.4-1.11,3.19-.5,4.32-.5,3.19.5,4.13.46,1.75-.15,1.75-.15l.58,1.15A8.89,8.89,0,0,1,229.3,123.65Zm11.6-6.91c-2.8,1.15-9.89,1.69-11.6,1.23s-9.58-6.69-10.2-7.07a10.39,10.39,0,0,1,3.71.31A7.64,7.64,0,0,0,226,112c2.23.3,3.69-.87,5-.26a7.75,7.75,0,0,0,5,.15c1-.51,3.48.72,4.93-.3s4.36-.72,4.36-.72S243.71,115.59,240.9,116.74Z"/><circle class="cls-3" cx="164.66" cy="266.73" r="95" transform="translate(-140.38 194.56) rotate(-45)"/><path class="cls-2" d="M44.06,225.46l-9.28-14.09-6.87-14.66c6.45,1.41,11.38,1.56,15.72.52A16.88,16.88,0,0,0,52,192.36c-9.09.75-15.29-2.15-18.63-7.16l-9.12-13.82a17.91,17.91,0,0,1-2.49-5.72c-4.33-18.13,15.51-49.78,54.38-58.57l9.26,14,4.8,7.31-3,.71c-.66.26-1.07.67-1.56,2,1.09,3.71,2.26,7.3,3.52,10.88,2-28.21,12.87-53.13,28.29-56.82,6-1.43,12.84.4,19.53,6.65l9.26,14-7.52,15.45c-5.13-3.15-8.71-4-11.89-3.27-18.12,4.34-21.73,40.36-12,79.91l-12.73,3-9.28-14.09c-.72-2.58-1.1-5-1.61-7.56-1.43-3.43-3.92-8.75-6.91-14.86,0,25.17-2.18,55.25-24.73,60.65A39.4,39.4,0,0,1,44.06,225.46Z"/><path class="cls-2" d="M123.64,217.32l-9.28-14.08-6.87-14.67c5.81.85,10.3.9,14,0a21.62,21.62,0,0,0,3.49-1.14l0-.09-9.42-14.26a20.45,20.45,0,0,1-2.46-6c-2.68-11.18.4-30.26,2.4-40.33h15.63l5.89,8.72c-.83-5.61-1.79-10.47-2.45-13.72h15.89l9.26,14c0,4,.27,8.8.62,14.12,1.31,20.38,5,60-23.27,66.72A39.72,39.72,0,0,1,123.64,217.32Z"/><path class="cls-2" d="M170.51,171.25l-9.1-13.72a21,21,0,0,1-3.14-7.2c-5.06-21.11,8.12-38,19.21-40.67a10.08,10.08,0,0,1,11.66,4.85l8.9,13.36.52.9,1.93-.46,9.26,14c-.92,22.13-10.83,34-20.86,36.38A17.08,17.08,0,0,1,170.51,171.25Z"/><path class="cls-2" d="M240,118.85l-4.53,1.09.38-2.24-9.26-14-14.6-1-.77,4-.09,0c-2.51.6-6-1.11-7.11-2.88l-2.79-.15-4.63,6.2a8.39,8.39,0,0,0,1.31,3.36l2.23,3.34a95.33,95.33,0,0,1-1.51,20.54l9.26,14,6.26-1.5L222.31,162a15,15,0,0,0,1.75,2.19,2.67,2.67,0,0,1,.5,0,6.57,6.57,0,0,1,1.08.1,4.06,4.06,0,0,1,1.35-.22c4.36,0,8.72.09,13.08.09.14,0,.27,0,.4,0,5.16-5.44,8-16.36,8.8-31.34Z"/><path class="cls-2" d="M252.64,156l-8.83-13.48a23.44,23.44,0,0,1-3.65-8.4c-2.65-11.09-1.33-27.3-.07-37.39l5.29,0-4.48-6.78a8.32,8.32,0,0,1-1-2.51,10.82,10.82,0,0,1,7.82-12.47,7.58,7.58,0,0,1,8.43,3.28L256,78l9.28,14.09c3,4.38,1,10.78-3.34,13.74l3.2,4.84-.36,2.33,4.44-1.06,9.25,14c-1,20-5.81,32.78-14.78,34.93C259.55,161.89,255.5,160.31,252.64,156Z"/><path class="cls-4" d="M35.42,209.7l-5.16-10.89a33.85,33.85,0,0,0,13.23-.11c23.13-5.53,21.55-48.77,17.76-80-21.6,9.85-31.47,25.67-29.19,35.21,1.53,6.36,8.58,9.87,21.21,6.85l-4.35,14.6C33.4,179.1,25,174,22.91,165.1c-4.06-17,14.76-47.36,52-56.26l2.87,4.31-.77.18c-1.33.42-2.16,1.64-2.83,3.53A167.68,167.68,0,0,0,90,154.46c-.31-33.66,11.1-63.91,27.39-67.81,5.21-1.25,11.06.21,17.09,5.39l-6.14,12.68c-4.59-2.57-8.43-3.28-11.61-2.52-19,4.54-23,41.16-13.63,80.21l-9.44,2.26c-.49-2-.85-4-1.24-6-3.6-8.21-13.21-27.92-19.6-42.29.09,26.37,2.11,66.76-23.34,72.85A38.28,38.28,0,0,1,35.42,209.7Z"/><path class="cls-4" d="M115,201.47l-5.18-11a35,35,0,0,0,11.52-.41c14.17-3.39,18.28-17.73,18.55-32.77-3.9,10.51-9.67,17.09-15.16,18.4-4.63,1.11-8.74-1.58-10.56-9.19-2.49-10.41.14-28,2.2-38.78h12c-3.73,15-5,28.1-3.52,34.18.67,2.79,2,3.69,3.94,3.23,5.3-1.27,10.95-10.87,10.43-20.74-.76-8.27-2.2-16-3.23-21.67h12.24c.32,23.62,9,70.66-21.44,78A37.5,37.5,0,0,1,115,201.47Z"/><path class="cls-4" d="M159.37,149.78c-4.79-20.05,7.66-36.18,18-38.65,5-1.2,9.63,1.06,11.22,7.71,2.24,9.35-3.42,24.88-16.13,28.43,2.51,4.08,6.53,6,10.67,5,5.4-1.29,10.87-7.79,12.43-21.31l2.6-.63c-1.47,19.82-10.47,30.33-19.44,32.48C170.69,164.7,161.89,160.29,159.37,149.78Zm13.22-6.12c5.39-1.29,10.8-10.64,8.7-19.41-.41-1.73-1.36-2.73-3.19-2.29-5.5,1.31-10,9.83-7.76,20C170.81,143.47,171.43,143.94,172.59,143.66Z"/><path class="cls-4" d="M211.08,140.16c-1.86-7.81-1-18.31.36-27.5a11.55,11.55,0,0,1-4.14,1.9,10.19,10.19,0,0,1-1.75.32c-.89,6.53-1.74,12.34-2.63,19.28l-2.7.65a116.1,116.1,0,0,0,1.08-20.64,5.76,5.76,0,0,1-3.4-4l4.17-5.58c1.35,2.22,5.84,4.41,8.93,3.67a5.87,5.87,0,0,0,1.21-.49l.61-3.41,11.29.76c-2.58,14.38-2.57,25.89-1.17,31.77.93,3.86,2.45,5.12,4.28,4.69,4.25-1,6.8-11.21,7.83-20.12l2.6-.62c-1.26,18.14-5.75,29.2-13.37,31C219.18,153.1,213.32,149.51,211.08,140.16Z"/><path class="cls-4" d="M241.27,133.05c-2.46-10.31-1.45-25.23-.19-35.32l12.23,0c-2.57,14.37-2.56,25.89-1.16,31.77.92,3.86,2.45,5.12,4.28,4.68,4.24-1,6.8-11.2,7.83-20.11l2.6-.62c-1.27,18.13-5.75,29.2-13.37,31C248.38,145.72,243.51,142.4,241.27,133.05Zm6.3-56.76A5.94,5.94,0,0,1,255,80.84a9.24,9.24,0,0,1-6.53,10.63A6,6,0,0,1,241,86.73,9.15,9.15,0,0,1,247.57,76.29Z"/><polygon class="cls-5" points="133.5 223.35 133.5 223.35 133.5 223.35 133.5 223.35"/><path class="cls-5" d="M133.48,223.36h0Z"/><path class="cls-5" d="M132.72,221.84l-.16.1.16-.1Z"/><path class="cls-5" d="M158.54,265.52c-3.83,5.62-8.13,10.87-12.2,16.31-7.41.54-14.31,1.35-22,1.54C118,279.64,102,270,98,267.49s-1.65-.95-2.33-1.44c-1.81-1.31-2.05-1.53-2.2-2.84-1.16-10.12,4.19-20.46,12.08-26.39,1.18-.89,1.13-.53,2.88,0,.22.06-2.42-1.32,1.17.63s14.45,7.42,21.55,11.38S150.58,260.9,158.54,265.52Z"/><path class="cls-2" d="M142.23,269.3c-2.49-1-5-2-7.44-3.08,1.6,1.29,3.22,2.58,4.83,3.86l-2.56.77C129,267.71,121,264.41,113,261c8.31,4.26,16.49,8.42,25,12.42-2.16.39-.67.24-3.68.76s-10.53,1.72-14.41,2.31c-8.57-5-16.57-10.44-24.75-15.85a9.54,9.54,0,0,0,1.8,5.9,2.39,2.39,0,0,1-.23.22c-.4-.31-1.13-.63-1.48-.93-.93-.78-1.84-1.39-2-2.7-1-10,4.26-20.41,12.11-26.36,1.18-.89,1.55-.3,2.63-.2.13,0,.22.19.38.19-.36.38-.49.77-1.11.74-2.57-.12-4.79,5.12-5.76,7a16.67,16.67,0,0,1,6.6-5.38,29.58,29.58,0,0,0-6.33,9.48l3.18,1.89a16.72,16.72,0,0,1,2-4.72c-1.16,5.46-1.14,11.24,1.18,16.39a43.86,43.86,0,0,0,.31-9.37c5.28,2.93,10.56,5.85,15.92,8.62-5.57-4.53-11.26-8.92-16.82-13.46q10.51,6.15,21.29,11.83c-1.38-1.73-2.84-3.85-4.23-5.46s-3-2.41-4.6-3.64c2.79,1.21,5.58,2.36,8.4,3.48-.27-1-.53-2-.81-3-6.58-2.76-13-5.82-18.42-10.61,7.37,3.45,14.74,7.18,22.2,10.2,1.65,2.41,1.45,2.22,3.51,5.26s6.38,9.33,8.86,13A9.74,9.74,0,0,1,142.23,269.3Z"/><path class="cls-2" d="M146.4,282.83c-.2.06-.09,0-.12,0-7.29.62-14.58,1.19-21.83,1.66a.89.89,0,0,1-.65-.14c-9.61-5.79-19.76-11.72-29.09-17.6-1.56-1-2.21-1.69-2.39-3.23C91.08,253,96.7,242.09,105,236c1.58-1.17,1.92-.63,3.92-.16.18,0-2-1,1.1.58s15.92,8.67,21.1,11.05l.23.12c9.19,5.78,18.7,11.44,27.91,17.17.62.38.65.76.18,1.4-3.89,5.35-8.21,10.89-12.24,16.19A1.49,1.49,0,0,1,146.4,282.83Zm-21.49-.39c7-.44,13.94-1,20.9-1.59,3.79-5,7.6-9.84,11.26-14.92-8.66-4.95-18.55-11.75-26.85-16.39s-14.88-7.7-22.78-12c-.61-.33-.8-.44-1.52.11-7.4,5.68-12.45,15.62-11.46,25.12.11,1,.55,1.52,1.63,2.19C105.44,270.83,115.33,276.71,124.91,282.44Z"/><path class="cls-5" d="M196.1,273.09c8.32-2.6,19.19-4,26.62-7.75s7.21-12.12,4.19-19c-1.33-3-2.3-6.83-9.17-6.94-3.75,0-20.43,3.06-26,4.82-8.22,8.12-15.45,16.16-23.35,24.19.83,3.82,1.61,7.6,2.43,11.46C179.13,277.31,187.78,275.7,196.1,273.09Z"/><path class="cls-2" d="M170.22,280.91c-1.36-4.15-1.87-8.51-2.92-12.73,7.94-8.19,15.71-16.46,23.62-24.7a4,4,0,0,1,.46-.08c5.54-1.93,23.11-5,26.53-4.89,7.21.17,8.63,4.4,9.94,7.42,3.31,7.66,3.15,16.08-4.6,20.16s-18.15,4.79-27.09,8c-.06,0,2.58-.72-.95.21S175.93,279.3,170.22,280.91Zm-.75-12.28c.79,3.35,1.33,6.74,2.24,10.07,6.76-1.92,17.72-4.56,23.67-6.26,9.94-2.84,18.63-4.35,26.84-7.68,3.66-1.49,2.69-2.14,4.46-5.41,1.56-2.88,2-8.8-.58-12.6-2.2-3.18-1.52-6.25-8.66-6.52-3.09-.11-20,3.15-25.08,4.74C184.27,252.92,177.22,260.77,169.47,268.63Z"/><path class="cls-2" d="M226.56,260c-2.93,3.38-7,4.27-11,5.48a7.92,7.92,0,0,0,1.82-3.73,18,18,0,0,1-5.61,4.73,11.18,11.18,0,0,0,2-3.7,22.3,22.3,0,0,1-6.12,4.86,14.3,14.3,0,0,0,2.36-3.86l-4.91,4.34c-2,.49-3.88,1-5.87,1.47A17.69,17.69,0,0,0,189,266a19,19,0,0,0-9.12,1.8c2.65-2.27,6.11-6.34,8.71-8s4.23-.94,6.7-1.94c-.72-.24-1.35-.62-2-.92a24.82,24.82,0,0,1,7.12,1.51,46,46,0,0,1,7.06,2.73,17.68,17.68,0,0,0-6.81-4.87c8-2,16-3.88,23.91-5.91,2.17,2,2.45,4.89,2.35,7.65a8.09,8.09,0,0,0,1.17-3.64c0-.87-.12-1.62.62-1.87-.23,1.4.23,3.81-.16,4.94A8,8,0,0,1,226.56,260Z"/><path class="cls-2" d="M189.61,253.06c10.06-2.72,20.22-5,30.3-7.67-2.46.15-4.89.16-7.37.39s-5,1.16-7.4,1.39a75.06,75.06,0,0,1,12-3.94c2.88-.47,2.47-.36,4.73-.62a13.8,13.8,0,0,0-5.19-2.85c-6.9,1.12-13.83,2.05-20.7,3.34Z"/><path class="cls-2" d="M148.71,270.58c-11.46-8.13-18.2-15.54-22.8-29.33-2-5.88-1-14.24.37-20.43,1.63,3.69,1.83,10.44,8,8.47,3-1,3.31-7.17,2.22-10.88s-2.64-8.31-2.21-13.14,3.91-10.89,6.41-15.22,3.12-8.21,3.64-13c2.92,3.53,5.2,5.81,6.39,10.57s-2.62,10.68.12,15.56,7.61.32,8.16-5.24-4.34-14.33-3.09-20.68,8.49-9.34,9.93-15.72c1,4.17-.43,6.54-.54,11s1.64,8.82,4.18,13a19.59,19.59,0,0,1,2.17,14.65c-1.3,4.75-3.38,8.66-3.15,13.37s4.94,9.06,9.25,7.59c5.35-1.82,3.48-6.79,2.79-10.81,4.85,2.4,7.21,8.53,7.85,13.26s-2.37,8.64-2.88,12.17,1.1,5.16,3.56,1.57,3.67-10.62,3.37-16-3.59-13.62-4.26-18.66,1.86-5.26,3.29-9.29c1.6,5.82,2.67,5.67,5.54,12.16s6.59,15.2,4.44,24.7c-1.78,7.84-7.49,21.74-13,27.92-6.36,7.09-13.53,8-19,15.1C162.55,271.51,155.79,271,148.71,270.58Z"/><path class="cls-4" d="M169.91,196.23c-2.25,6.19-5.63,11.27-5.85,18.29s2.63,13.33,7.61,18.46a3.29,3.29,0,0,1-2.55,1.08c8.64.77,12.18-4.49,15.13-11.91a22,22,0,0,1-.7,10.38c-1,3.36-2.44,6.76,1.52,8.75s6.83-1.64,8.42-6,2.23-13.39,1.57-17.89a60.82,60.82,0,0,0-3.14-11.51c-1-3-.38-2.17-.77-4.58a81,81,0,0,1,5.51,8.14c1.41,2.68,1.75,4.94,2.43,7.69a21.44,21.44,0,0,0-2.7-11,47.09,47.09,0,0,1-4-9.92c-.58-2.41-.43-1.23-.91-3-1.48,3.24-3.61,4.6-3.38,8.56s2.7,8.51,3.57,12.62c.75,3.47.5,8.29.75,11.57s-1.44,14.15-5.64,12.24.21-16.33-3.33-22c-1.6,9.35-3.32,15.1-14.15,11.68,1.54.06,3.12-.13,4.63,0-4.07-3.33-6.52-4-7.37-10.21S169.38,202.92,169.91,196.23Z"/><path class="cls-3" d="M125.45,240.34a76.24,76.24,0,0,0,22.85,25c-6.09-7.77-9.85-14.51-7.18-24.47a26.59,26.59,0,0,0,6.37,11.5c-1.2-5.8.08-10.43,2.83-15.58A192.42,192.42,0,0,0,153.65,262c1.14-7.68,2.8-14.79,6.29-21.77a25.4,25.4,0,0,1,.1,11c3.74-6.88,3-13,.59-20.26,3.82,6.09,6,11.07,3.38,18.25s-6.8,13.45-7.2,21.44A46.86,46.86,0,0,1,167,258a40.88,40.88,0,0,0,10.59-15.92,41.64,41.64,0,0,1-4.11,14.23,14.5,14.5,0,0,0,6.94-5.18c-.81,5.2-4.42,8.62-8,11.81s-4.1,5.71-5,10.07c1.21-3,1.6-4.22,4.38-6.41s7.18-3.4,10.19-6.13,2.45-7.93,2.62-11.78c.62,1.91,1.22,3.93,1.75,5.91,3.53-3.36,7.07-6.94,10.36-10.39-3.35,6.45-8.76,15.55-14.13,19.45s-7,4-7.61,10-10.69,7.19-15.32,9.26c-3.57-2.62-7.11-5.19-10.74-7.69-.73-1.92-1.46-3.86-2.24-5.74a45.08,45.08,0,0,1-13.51-11.78A46.38,46.38,0,0,1,125.45,240.34Z"/><path class="cls-2" d="M148.13,271.31c-2.27-1.34-4.61-2.64-6.74-4.18A39.28,39.28,0,0,1,130.73,256a34.34,34.34,0,0,1-1.82-3.3c-.28-.56-.52-1.13-.76-1.69s-.5-1.14-.7-1.71c-.82-2.3-1.69-4.58-2.44-6.89a27.89,27.89,0,0,1-1.54-7,51.35,51.35,0,0,1,1.5-14.13c.24-1.1.74-2.86,1-4.06.4,1.38.78,2.95,1.17,4.32a22.5,22.5,0,0,0,1.42,3.87,10,10,0,0,0,2.4,3,3.53,3.53,0,0,0,1.48.66,1.89,1.89,0,0,0,.79,0c.22,0,.15,0,.24,0s0,0,.07,0,0,0,0,0,0,0,0,0,.09,0,.21-.17a3.35,3.35,0,0,0,.5-.6,5.87,5.87,0,0,0,.47-.84,9.63,9.63,0,0,0,.62-1.71,15.71,15.71,0,0,0,.36-3.83,16.55,16.55,0,0,0-.24-2c0-.33-.14-.68-.22-1s-.18-.73-.26-1c-.39-1.44-.82-2.78-1.26-4.18a19.21,19.21,0,0,1-.56-2.14c-.14-.73-.23-1.48-.3-2.22s-.07-1.49-.07-2.24c0-.37,0-.73,0-1.1a10.36,10.36,0,0,1,.08-1.12,20.89,20.89,0,0,1,.92-4.43,53.15,53.15,0,0,1,4-8c.29-.5.77-1.24,1.11-1.81s.79-1.21,1.1-1.8a22.9,22.9,0,0,0,1.63-3.74,32,32,0,0,0,1-4c.12-.67.19-1.35.27-2,0-.34,0-.67.08-1s0-.63,0-1c0-.88,0-1.86,0-2.75.6.55,1.54,1.4,2.05,1.88s.75.71,1.13,1.1.69.71,1,1.08a28.44,28.44,0,0,1,1.79,2.25,22.54,22.54,0,0,1,2.61,5,10.67,10.67,0,0,1,.58,2.71,15.24,15.24,0,0,1,0,2.7c-.12,1.74-.38,3.51-.63,5.17a29.34,29.34,0,0,0-.42,4.88,7,7,0,0,0,.46,2.15,2.34,2.34,0,0,0,1.14,1.29.85.85,0,0,0,.8.13,1.34,1.34,0,0,0,.9-.33,4.52,4.52,0,0,0,1.44-1.45,15,15,0,0,0,1.74-4.33,14.49,14.49,0,0,0,.22-4.7,26.27,26.27,0,0,0-1.12-4.76c-.5-1.61-1.15-3.2-1.69-4.86a20.79,20.79,0,0,1-1.13-5.21,8.26,8.26,0,0,1,.37-2.73,11,11,0,0,1,1.17-2.56,29.83,29.83,0,0,1,3.49-4.29c1.22-1.29,2.58-2.56,3.63-3.83a17.48,17.48,0,0,0,2-4,1.53,1.53,0,0,1,.74-.82,1.78,1.78,0,0,1,1.79.48c.28.28.37.73.59,2.68a10.14,10.14,0,0,1-.05,2.7c-.26,1.69-.79,3.23-1.11,4.87,0,.2-.05.37-.07.52s0,.17,0,.3,0,.16,0,.3,0,.38,0,.56,0,.37,0,.56a17,17,0,0,0,.23,2.25,22.13,22.13,0,0,0,1.37,4.37,34.2,34.2,0,0,0,2.26,4.15c.2.33.46.7.67,1.06s.46.72.66,1.1a19,19,0,0,1,1.09,2.33,17.27,17.27,0,0,1,1.08,5,19.69,19.69,0,0,1-.52,5.14,51,51,0,0,1-1.49,4.93c-.52,1.6-1.21,3.14-1.63,4.73a13.19,13.19,0,0,0-.53,4.74,8.18,8.18,0,0,0,1.79,4.31,7.38,7.38,0,0,0,3.83,2.6,3.67,3.67,0,0,0,2.13,0,3.11,3.11,0,0,0,1.73-1,6.11,6.11,0,0,0,1.16-4,13,13,0,0,0-.3-2.4,9.44,9.44,0,0,0-.29-1.14c-.08-.29-.12-.4-.19-.62s-.12-.37-.2-.58c-.29-.78-.58-1.58-.85-2.36l2.32.87a9.15,9.15,0,0,1,2.6,1.47,11.22,11.22,0,0,1,2,2,21.75,21.75,0,0,1,2.75,4.82,25.57,25.57,0,0,1,1.5,5.38,13.6,13.6,0,0,1,.16,2.85,14.21,14.21,0,0,1-.38,2.79,37.25,37.25,0,0,1-1.74,5.06c-.34.82-.66,1.54-1,2.33a4.37,4.37,0,0,0-.19.54,3.37,3.37,0,0,0-.12.48,1.42,1.42,0,0,0,0,.67.72.72,0,0,0,.64.45,1,1,0,0,0,.5-.25c.12-.09.08-.08.16-.17a1.29,1.29,0,0,0,.15-.2,5.7,5.7,0,0,0,.32-.48,20.71,20.71,0,0,0,1.86-4.5,31.24,31.24,0,0,0,1-4.94,44.25,44.25,0,0,0,.3-5.16,39.62,39.62,0,0,0-1.41-10.09c-.45-1.66-1.1-3.23-1.69-4.86-.29-.81-.61-1.62-.85-2.47a12.88,12.88,0,0,1-.57-2.62,8.23,8.23,0,0,1,.27-2.66,11.84,11.84,0,0,1,.89-2.44,21.13,21.13,0,0,1,1.25-2.1c.24-.36.44-.64.73-1s.45-.58.86-1,1.19-1.36,1.67-1.91c.11.82.17,1.65.27,2.51,0,.05,0,.15,0,.25s0,.14.07.33.07.32.17.63.24.77.41,1.2c.33.86.7,1.68,1.14,2.58.89,1.81,1.94,3.41,2.94,5.27a46.5,46.5,0,0,1,4.93,12.38,35.54,35.54,0,0,1-1.28,19.62c-.64,2.08-1.42,4.1-2.2,6.07s-1.65,3.91-2.56,5.76a58.12,58.12,0,0,1-3,5.4,48.46,48.46,0,0,1-7.46,9.42,39.27,39.27,0,0,1-8.42,5.67c-1.51.84-2.71,1.4-4.13,2.23-.71.42-1.39.77-2.08,1.22-.34.22-.68.45-1,.7a4.39,4.39,0,0,0-.83.89,3.27,3.27,0,0,1,.46-1.18,6.83,6.83,0,0,1,.76-1,16.82,16.82,0,0,1,1.73-1.65,40.43,40.43,0,0,1,3.79-2.64c2.85-1.82,5.61-3.16,8.25-5.65a46.07,46.07,0,0,0,7.12-9.15c1-1.63,2-3.47,2.86-5.25s1.75-3.71,2.51-5.62,1.56-3.91,2.16-5.91a40.86,40.86,0,0,0,1.55-6.09,36.34,36.34,0,0,0-.39-12.48,44.24,44.24,0,0,0-4.69-11.7c-1-1.94-2.22-3.73-3.15-5.62-.47-.95-.81-1.74-1.17-2.64-.18-.45-.34-1-.45-1.3a6.77,6.77,0,0,1-.19-.74,3.43,3.43,0,0,1-.09-.4,3.49,3.49,0,0,1-.07-.43l2,.5c-.23.28-.47.56-.69.86s-.46.59-.65.91A13.3,13.3,0,0,0,190,197.9a8,8,0,0,0-.93,4.12,18.86,18.86,0,0,0,1.29,4.58c.55,1.59,1.27,3.32,1.75,5a39.41,39.41,0,0,1,1.19,5.32,40,40,0,0,1,.35,5.47,51.1,51.1,0,0,1-.31,5.39,34.3,34.3,0,0,1-1,5.31,22.78,22.78,0,0,1-2.1,5.08c-.11.2-.27.41-.38.57a3.35,3.35,0,0,1-.26.34,2.05,2.05,0,0,1-.32.34,3.69,3.69,0,0,1-1.75.91,2.83,2.83,0,0,1-2-.44,3.79,3.79,0,0,1-1.31-1.65,4.05,4.05,0,0,1-.2-1.84,4.11,4.11,0,0,1,.19-.87,5.13,5.13,0,0,1,.24-.7c.31-.83.69-1.65,1-2.43a34.58,34.58,0,0,0,1.61-4.65,12,12,0,0,0,.33-2.37,10.67,10.67,0,0,0-.14-2.39,22.5,22.5,0,0,0-1.32-4.77,18.45,18.45,0,0,0-2.38-4.2,9.6,9.6,0,0,0-3.43-2.74c.51-.49,1-1,1.53-1.49.09.26.16.45.24.72a7.7,7.7,0,0,1,.22.74c.09.35.25.87.33,1.33a18,18,0,0,1,.36,2.87,10.81,10.81,0,0,1-.32,3,6.55,6.55,0,0,1-1.43,2.72,5.58,5.58,0,0,1-2.69,1.58,7.3,7.3,0,0,1-3.29.12,9.57,9.57,0,0,1-3.1-1.41,10.4,10.4,0,0,1-2.45-2.26,11.77,11.77,0,0,1-2.38-5.67,15.33,15.33,0,0,1,.57-5.42c.42-1.75,1.15-3.23,1.67-4.82s1.06-3.11,1.41-4.67a17.61,17.61,0,0,0,.48-4.55,14.65,14.65,0,0,0-.93-4.38,15.38,15.38,0,0,0-1-2.09c-.17-.35-.39-.67-.6-1s-.43-.66-.66-1a36.68,36.68,0,0,1-2.41-4.45,23.67,23.67,0,0,1-1.51-4.82,19.52,19.52,0,0,1-.26-2.54c0-.21,0-.44,0-.64s0-.46,0-.63,0-.2,0-.35,0-.19,0-.36.06-.45.1-.66c.15-.81.42-1.69.62-2.47a14.85,14.85,0,0,0,.51-2.3,11.43,11.43,0,0,0-.43-4.43l2.5-.26a8.07,8.07,0,0,1-.88,2.87,15,15,0,0,1-1.63,2.35c-1.16,1.4-2.5,2.67-3.7,3.93a25.92,25.92,0,0,0-3.19,3.9,7.21,7.21,0,0,0-.95,2.08,6,6,0,0,0-.26,2.2,18.89,18.89,0,0,0,1,4.67c.5,1.6,1.17,3.19,1.67,4.86a25.94,25.94,0,0,1,1.2,5.17,16.19,16.19,0,0,1-.28,5.41,15.4,15.4,0,0,1-2.09,5.09,6.91,6.91,0,0,1-2.27,2.15,4.69,4.69,0,0,1-1.83.58,5,5,0,0,1-2.13-.3,5.1,5.1,0,0,1-1.67-1.14,5.17,5.17,0,0,1-1-1.44,8.4,8.4,0,0,1-.69-2.9,29.6,29.6,0,0,1,.41-5.29c.22-1.72.49-3.31.63-5a12,12,0,0,0,0-2.4,8.68,8.68,0,0,0-.49-2.29,19.61,19.61,0,0,0-2.31-4.36c-.48-.7-1.07-1.38-1.62-2-.28-.33-.59-.66-.88-1s-.61-.61-.92-.9c.72-.27,1.44-.56,2.17-.82,0,.38,0,.76,0,1.13s0,.74-.08,1.1c-.07.73-.15,1.45-.28,2.17a31.63,31.63,0,0,1-1,4.27,28.67,28.67,0,0,1-1.8,4.09c-.35.66-.79,1.3-1.14,1.89s-.84,1.33-1.12,1.81a48.26,48.26,0,0,0-3.78,7.58,19.67,19.67,0,0,0-.87,4c-.05.34-.06.67-.08,1s0,.68,0,1c0,.68,0,1.35.06,2a20.35,20.35,0,0,0,.27,2,20,20,0,0,0,.56,2c.43,1.4.86,2.79,1.26,4.25.07.27.19.71.26,1.05a9.76,9.76,0,0,1,.24,1.1,15.35,15.35,0,0,1,.26,2.25,17.55,17.55,0,0,1-.48,4.45,11.64,11.64,0,0,1-.8,2.13,8.78,8.78,0,0,1-.6,1,6.35,6.35,0,0,1-.82.94,3.55,3.55,0,0,1-.71.48,1.91,1.91,0,0,1-.5.18l-.39.08a6.11,6.11,0,0,1-1.54,0,6.85,6.85,0,0,1-2.72-1.12,9.4,9.4,0,0,1-1.88-1.84,11.16,11.16,0,0,1-1.27-2.05,29.38,29.38,0,0,1-1.57-4.32l2.22.19a48.24,48.24,0,0,0-1.4,13.38,26.75,26.75,0,0,0,1.38,6.68,67.78,67.78,0,0,0,2.36,6.65,41.45,41.45,0,0,0,7.66,12c3.44,3.62,7.88,6.29,12.13,8.95C148.92,270.27,148.52,270.79,148.13,271.31Z"/><path class="cls-4" d="M127.72,229c2.33,2.33,3.48,6.28,7.71,4.94s4.8-5.74,4.42-10.36-2.88-10.5-3-15.55,2.16-10.91,4.31-15,3.86-6.24,4.91-10.51c1.82,5.55,2.12,9.44,1.78,15.49a22.86,22.86,0,0,0,5.81,16.69,8.48,8.48,0,0,1-.78-3.74c4.62-1.54,6.6-5.54,7.63-10s.17-9.38-.85-13.29-2.36-6.9-1.66-10.47,2.91-4.75,5.06-7.22a32.73,32.73,0,0,0,.81,15.33c-2.26-3-3.67-5.75-3.55-9.64-.79,4.39-.08,6.84,1.2,11.33s2.1,9.76,1,14.77-3.13,9.15-7.66,12a22.56,22.56,0,0,0,4.66,9.15,38.81,38.81,0,0,1-13.37-18.08,14.16,14.16,0,0,0-1.29,6.05c-.72-2.48-1-4.08-.18-6.74a43.27,43.27,0,0,0,1.88-9.7,28.48,28.48,0,0,0-.59-5.75c-3.4,5.52-6.86,13.21-6.74,19.3s2.62,10.62,2.9,15.85-1.49,9.55-3.73,13.31-2.43,5.36-3.23,9.23a17.27,17.27,0,0,1,.4-9.11C131,236.09,129.15,233.25,127.72,229Z"/><path class="cls-4" d="M199.93,222.34a13.82,13.82,0,0,1,.73,3.3,15.91,15.91,0,0,1-.1,3.38,18,18,0,0,1-.77,3.24,17.77,17.77,0,0,1-1.4,3c.15-1.08.34-2.17.52-3.24s.36-2.12.5-3.19.27-2.13.35-3.21S199.87,223.43,199.93,222.34Z"/><path class="cls-2" d="M183.67,187.7a117.56,117.56,0,0,0-.86,13.67c.05,2.07,0,.15,0,.83s.07.22,0,.5-.18-.12-.27-.21c-3.94-3.63-6.53-9.22-6.33-14.28s1.93-8,1.12-12.76c3.31,2.1,5.42,4.21,6.27,8.05A14.79,14.79,0,0,1,183.67,187.7Z"/><path class="cls-4" d="M183.7,183.43c-1.41-.64-1.79-4-3.56-.91s-1.86,8.66-.54,12.28c.62-1.54,1.23-3.24,1.86-4.83.2,2.09.3,4.27.42,6.35a43.46,43.46,0,0,0,1,6.06c0,.1,0,0,0,0s-.13.17-.24.09c-3.95-3.66-6.54-9.24-6.34-14.3s1.93-8,1.11-12.76C180.72,177.54,182.7,179.66,183.7,183.43Z"/><path class="cls-2" d="M184.2,205c-.67-.47-1.35-1-2-1.49a2.75,2.75,0,0,1-.26-.22A21.82,21.82,0,0,1,175.18,188c-.05-2.11.62-3.68.92-5.32.5-2.72.8-4.3.28-6.94-.12-.58-.5-1.46-.63-2.1.6.34,1.57.78,2.12,1.12,3.71,2.28,5.82,4.53,6.81,8.77a19.09,19.09,0,0,1,0,4.47c0,.58.08-1.15,0,0s-.38,3.76-.51,5.12a61.18,61.18,0,0,0-.31,9.29C183.9,203.07,184.11,204.22,184.2,205Zm-5.38-27.58a25.09,25.09,0,0,1-.72,5.56,23.46,23.46,0,0,0-.91,5.1,19.59,19.59,0,0,0,4.54,12.31c0-2.59.16-4.82.42-7.51.14-1.46.4-3.55.51-5.14h0a18.27,18.27,0,0,0,0-4C182.17,180.83,180.92,179.26,178.82,177.41Z"/><path class="cls-2" d="M128.47,208.12a15.17,15.17,0,0,1-.3,4.11,48,48,0,0,1-3.3-4.6c-.5-1-.09-.34-.19-.37-.19-.82-.66-1.44-.8-2.37a13.55,13.55,0,0,1,1.92-9.72A47.4,47.4,0,0,1,128.47,208.12Z"/><path class="cls-4" d="M128.47,208.14c-.26.1-.39.54-.71.17-1.81-2.05-2-4.67-2.26-7.31a15.34,15.34,0,0,0-.82,6.23,9.8,9.8,0,0,1-.8-2.34,13.54,13.54,0,0,1,1.92-9.72A47.46,47.46,0,0,1,128.47,208.14Z"/><path class="cls-2" d="M128.6,215.31c-.39-.74-.94-1.93-1.29-2.6a16.77,16.77,0,0,0-2-2.83,16.39,16.39,0,0,1-1.59-2.27,1.51,1.51,0,0,1-.1-.17,10.32,10.32,0,0,1-.79-2.37A14.55,14.55,0,0,1,125,194.58c.22-.36.83-1,1.08-1.48.33.89.38.86.75,1.93a50,50,0,0,1,2.67,13.17,17.75,17.75,0,0,1-.3,4.37C129,213.36,128.79,214.49,128.6,215.31Zm-2.95-8.38a13.21,13.21,0,0,0,1.26,1.8c.17.22.38.47.57.67,0-.31,0-1,0-1.2v-.08a47.53,47.53,0,0,0-1.92-10.69,13.25,13.25,0,0,0-.65,7.35,8.92,8.92,0,0,0,.69,2Z"/><path class="cls-5" d="M158.17,288.12c-.45-6.48-1-14.08-5.76-19.12-22.51,5.52-44,8.09-67.22,13.22-4.11.91-3.76,15.58-2.65,19.79s1.59,17.4,8,18.31c.47.07-.15.12.77-.25,10.81-4.36,23.44-9.89,33.93-14.78A320.74,320.74,0,0,0,158.17,288.12Z"/><path class="cls-2" d="M153.7,278.2a42.63,42.63,0,0,1-.39,12c-12.06,4.94-31.76,13.29-41.8,17.93s-13.45,5.65-19.75,12.32a28,28,0,0,0,2.07-8.29c.21-2,0-1.91.17-3.54A120.33,120.33,0,0,1,105.57,304a67.1,67.1,0,0,0,10.76-4,37.31,37.31,0,0,0-6.7,1,14.79,14.79,0,0,1-5.51.46,41.63,41.63,0,0,0,5.67-1.75c1.94-.75,4.11-1.59,6.12-2.27a31,31,0,0,1,8.92,2.05,17,17,0,0,0-4.9-3.61,150.49,150.49,0,0,0,22.12-10.08c-6.65,2-13.31,4.76-20.14,5.86,5.17-2.88,10.9-6.48,16.36-8.39S148.39,280,153.7,278.2Z"/><path class="cls-2" d="M90.25,321.4c-6.74-1.75-7.63-14.18-8.58-19.19-1-5.19-2.13-19.76,3.52-21,22.9-5.07,44.46-8,67.15-13,.37-.08-.85-1.48,1.26.76s7,13.6,5,19.35c-.06.15,3.46-1.29-1.5,1.63S135.25,302,125.38,306.42c-8.75,3.91-23.94,10.76-33.59,14.58-1,.41-.61.3-1.05.39S90.49,321.46,90.25,321.4Zm61.87-51.29c-22.45,5.42-43.59,8.06-66.9,13.15-2.63.57-3,15.13-1.8,18.63s1.36,16.31,7,17.45c.29.05.14,0,.32-.1s0,0,.18-.08c11.46-4.65,22.92-9.65,34.17-14.88a358.69,358.69,0,0,0,32.14-16.74C156.81,281.36,156,275.18,152.12,270.11Z"/><path class="cls-2" d="M90.22,321.4c-6.5-1.76-7.87-14.17-8.5-19.19-.66-5.2-3-19.86,3.71-20.82s8.1,13.65,8.93,18.86h0c.43,2.71.77,10.87.23,13.83-.6,3.31-.93,6.1-3.91,7.32C90.46,321.5,90.46,321.46,90.22,321.4Zm-4.47-38.67c-.13-.06,0,0-.16,0-4.57,3-2.63,14.78-2.06,18.93s1.66,16.61,6.85,17.35c2,.28,1.87-3.29,2.37-5.47s.18-10.57-.23-13.06h0C91.62,295.07,91,285.5,85.75,282.73Z"/><path class="cls-2" d="M152.32,269.05a7.53,7.53,0,0,1,.09,4.53c-8,2.43-19.8,5.56-27.18,6.48s-10.08.59-16.58.89a260.33,260.33,0,0,0,26.94-7.42c2-.63.67-.86,3.46-1.6S148.75,269.94,152.32,269.05Z"/><path class="cls-2" d="M99.73,290.13c1.59-.73,3.23-1.39,4.89-2s3.3-1.1,5-1.59,3.36-.92,5.08-1.31,3.45-.71,5.2-.94c-1.6.76-3.25,1.44-4.91,2s-3.33,1.13-5,1.61-3.37.91-5.08,1.29S101.47,289.92,99.73,290.13Z"/><path class="cls-2" d="M92.82,296.54c2.51-.2,5-.42,7.51-.6-2.33,1.26-4.65,2.55-7,3.83C93.18,298.69,93,297.62,92.82,296.54Z"/><path class="cls-2" d="M91.77,305.09c-.46-3.3-1.47-13.38-5.69-14.12-1.73-.31-1.45,2.49-2,3.12.27-1.21-.7-8.14,2-7.89,4,.37,4.78,11.13,5.25,14.47C91.43,301.31,91.76,304.18,91.77,305.09Z"/><path class="cls-2" d="M91.43,309.71c.11.6.11,6.93-1.37,6.22-4.73-2.29-7.27-16.78-3.6-20.71,2.72,1.34,2.49,6.56,2.73,9.08-.41-.72-.74-5.17-2.37-4.79S87,305.93,87,307s1.41,6.61,2.5,6.45C91.53,313.11,90.75,310.65,91.43,309.71Z"/><path class="cls-5" d="M168.39,287.92c.35-6.49.68-14.13,5.15-19.43,22.82,4.74,44.43,8,67.65,13.73,4.11,1,3.52,15.61,2.34,19.83s-1.85,17.34-8.29,18.17c-.48.06.14.11-.77-.27-10.69-4.46-23.15-10.41-33.48-15.39C189.4,299,179.21,294.21,168.39,287.92Z"/><path class="cls-2" d="M172.63,277.78a46.5,46.5,0,0,0,.6,12.09c12.1,4.54,31.46,12.91,41.33,17.76s13.33,6,19.48,12.71A28.11,28.11,0,0,1,232.1,312c-.18-2,0-1.92-.12-3.55-3.68-1.67-7.72-3.58-11.49-4.87a69.38,69.38,0,0,1-10.65-4.26,34.79,34.79,0,0,1,6.64,1.2,14.74,14.74,0,0,0,5.48.61,39.63,39.63,0,0,1-5.62-1.92c-1.93-.8-4.08-1.69-6.09-2.42a28.42,28.42,0,0,0-8.83,1.95,16.15,16.15,0,0,1,4.85-3.59,178.16,178.16,0,0,1-22-10.05c6.63,1.86,13.24,4.6,20,5.76-5.12-2.93-10.89-6.55-16.33-8.38S177.93,279.44,172.63,277.78Z"/><path class="cls-2" d="M235.54,321.3c6.76-1.66,7.83-14,8.86-19,1.08-5.19,2.46-19.68-3.2-21.07-22.94-5.63-44.67-9.21-67.63-13.5-.38-.08.76-1.54-1.2.81s-6.4,14-4.43,19.63c.05.15-3.45-1.17,1.51,1.58s21.73,11.51,31.43,16c8.61,3.95,23.58,11.37,33.12,15.21,1,.41.61.32,1.05.41S235.3,321.36,235.54,321.3Zm-61.66-51.7c22.73,4.65,44,8,67.26,13.66,2.63.64,2.81,15.17,1.52,18.65s-1.61,16.27-7.23,17.33c-.29.05-.14-.05-.32-.1s0,0-.18-.09c-11.33-4.77-22.66-10.17-33.73-15.51-10.79-5.2-21.46-10.35-31.86-16.23C169.64,281.12,170.29,274.87,173.88,269.6Z"/><path class="cls-2" d="M235.57,321.29c6.52-1.66,8.08-14,8.79-19,.73-5.2,3.29-19.79-3.4-20.88s-8.33,13.48-9.22,18.69h0c-.46,2.71-.92,10.86-.42,13.83.55,3.32.82,6.11,3.78,7.38C235.33,321.39,235.33,321.35,235.57,321.29Zm5.05-38.55c.14-.07,0,0,.16,0,4.54,3.07,2.4,14.81,1.77,19s-1.91,16.57-7.11,17.23c-2,.25-1.82-3.33-2.28-5.51s0-10.57.42-13.06h0C234.54,295,235.31,285.39,240.62,282.74Z"/><path class="cls-2" d="M173.63,268.54a7.89,7.89,0,0,0,.09,4.54c8,2.13,19.72,5.06,27.06,6s10.15.7,16.64,1.13c-9.26-2.29-18.31-4.78-27.16-7.67-2-.59-.7-.86-3.47-1.54S177.18,269.26,173.63,268.54Z"/><path class="cls-2" d="M226.46,289.8c-1.6-.8-3.25-1.52-4.91-2.16s-3.34-1.22-5-1.76-3.39-1-5.12-1.45-3.46-.78-5.21-1c1.61.79,3.27,1.51,4.94,2.15s3.34,1.21,5,1.75,3.39,1,5.11,1.45S224.71,289.53,226.46,289.8Z"/><path class="cls-2" d="M233.32,296.41l-7.51-.76,6.94,4Z"/><path class="cls-2" d="M234.26,305c.51-3.29,1.65-13.33,5.9-14,1.74-.27,1.41,2.51,2,3.15-.25-1.22.83-8.12-1.88-7.91-4,.31-5,11-5.48,14.35C234.65,301.2,234.29,304.06,234.26,305Z"/><path class="cls-2" d="M234.53,309.58c-.11.61-.21,6.95,1.28,6.26,4.77-2.21,7.51-16.65,3.9-20.64-2.75,1.28-2.59,6.52-2.85,9,.42-.71.8-5.15,2.42-4.74s-.24,6.4-.27,7.43-1.52,6.58-2.6,6.41C234.38,313,235.2,310.53,234.53,309.58Z"/><path class="cls-5" d="M171.67,262.25c-4.08-2.38-16-1.92-17.26,4-3.23,14.91-8.16,52.14-9.67,61.52-1.27,8,.58,10.3.58,10.31,4,7.85,3,6.9,11.06,10.31,9.17,3.86,19,1.12,24.33-7.2,1.34-2.11,1.14-4,1.35-6.28,0,0,0,.26,0-.1s-.1-1-.22-1.77c-1.9-13.57-3.18-32.09-4.72-45.76,1.35-.09,2.79,1.27,4.17.81s2.11-2.07.52-4.24-5-5.62-5.68-9.64S176.79,265.25,171.67,262.25Z"/><path class="cls-2" d="M176.42,347.42a22.06,22.06,0,0,1-20.5,2c-9.49-3.92-15-12.28-11.28-22.1,1.84-4.81,6-7.22,10.66-8.74a21.9,21.9,0,0,1,15,.56h0c9.45,4.16,14.78,12.29,11.28,22.22A11.38,11.38,0,0,1,176.42,347.42Zm-25.83-24.68c-1.87,1.5-3.56,2.73-4.39,5.18-3,9,2,16.17,10.57,19.7a20.22,20.22,0,0,0,18.71-1.69,9.37,9.37,0,0,0,4.41-5.21c3.06-9-2-16-10.52-19.78h0c-4.15-1.85-9.44-1.75-13.81-.6A13.52,13.52,0,0,0,150.59,322.74Z"/><path class="cls-2" d="M176.71,288.18a6.23,6.23,0,0,1-1.63-.87,7.75,7.75,0,0,1-1.29-1.2,10.33,10.33,0,0,1-1.79-3,7.14,7.14,0,0,1-.42-1.81,5.29,5.29,0,0,1,.21-2,9.25,9.25,0,0,1,2-3.33,15.89,15.89,0,0,0-.74,1.7,8.66,8.66,0,0,0-.41,1.69,4.34,4.34,0,0,0,.07,1.57,5.91,5.91,0,0,0,.56,1.43,9.67,9.67,0,0,0,1.82,2.42,7.08,7.08,0,0,0,2.42,1.56Z"/><path class="cls-2" d="M172.61,279.2c.44.51.89,1,1.35,1.48s.94.95,1.42,1.41,1,.91,1.5,1.33a12.49,12.49,0,0,0,1.65,1.15,12.86,12.86,0,0,1-1.85-.85c-.6-.33-1.17-.69-1.74-1.06s-1.12-.75-1.67-1.15-1.09-.82-1.63-1.24C172,279.92,172.29,279.56,172.61,279.2Z"/><path class="cls-2" d="M176.67,331.13c1.32,2.89,1.87,5.62.52,8.64a8.51,8.51,0,0,1-3.15,3.68,13.26,13.26,0,0,1-5.17,2.21,20,20,0,0,1-10.73-.92,18.4,18.4,0,0,1-7.89-5.85,19.41,19.41,0,0,0,5.78,3.29,22.37,22.37,0,0,0,7.67,1.14,15.59,15.59,0,0,1-2.54-2.28,16.82,16.82,0,0,0,5.37,1.94,17.31,17.31,0,0,0,5.74-.07,19.4,19.4,0,0,1-2.8-.79,15.38,15.38,0,0,0,3.09-1.68,10.53,10.53,0,0,0,3.34-3.82A9.53,9.53,0,0,0,176.67,331.13Z"/><path class="cls-2" d="M156.38,339c-3.44-2.27-8.08-4.84-6-9.78s6.87-6.47,12.81-6.44c3.83,0,9.39,3.18,11,7.54-4.65-4.2-8.49-5.84-15.75-3.93C152.52,328,149.7,334.24,156.38,339Z"/><path class="cls-2" d="M162.14,328.18c-2.49,1-6.13-1.26-7.1,3.26s7.09,9.07,11.83,8.2a7.74,7.74,0,0,1-4.39-2.28c1.56,0,3.57,1.65,4.75-.76s-4.18-6-6.71-5.73c.95.26,5.84,3.49,4.63,4.76s-3.25,0-5.11-1.64S158.2,329.23,162.14,328.18Z"/><path class="cls-2" d="M170.39,337.49c.77-1.69.06-3.26-.81-4.77C171.47,334.12,173.27,336.12,170.39,337.49Z"/><path class="cls-2" d="M176.44,347.5a23,23,0,0,1-20.54,2c-8.41-3.27-13.15-10.59-12.47-18.64l.35-2.85c1.41-10.18,6.85-46.76,9.48-61.61a7.45,7.45,0,0,1,3.07-4.62c4.09-2.26,12.34-2.19,15.94-.31h0c5.16,2.69,3.64,6.65,4.67,11,.17.7,0,1.14.11,1.75.62,3,2.72,5.58,4.54,7.83.49.59.87,1.11,1.15,1.46a4.14,4.14,0,0,1,.24,4.43c-.63,1.11-1,1.24-2,1.28a17.84,17.84,0,0,1-2.78-.58c1.49,13.23,2.71,31.08,4.54,44.23a17.29,17.29,0,0,1,.22,2s0-.83,0,.28-.18,4.51-1.4,6.47S179,346,176.44,347.5Zm-31-18.38c-.11.77,0,.36,0,.39,0,.31-.17.66-.19.92-.62,8.21,3.79,14.29,11.5,17.15,8.85,3.29,18,1.34,23.13-6.71,1.25-2,1.05-3.61,1.22-5.78a16.51,16.51,0,0,0-.25-2.14s.51,4.25-.18-1.5-3.5-35.84-4.65-45.18c.36-.55,1,0,1.41.06a38.14,38.14,0,0,0,3.88.85c.25,0,.24-.28.34-.68a2.15,2.15,0,0,0-.45-1.75c-.26-.33-.61-.8-1.1-1.4-2-2.52-4.24-5.35-4.9-8.75-.12-.6.05-1.16-.11-1.81-.88-3.48.61-7.47-3.73-9.56h0c-3.29-1.58-10.47-2.22-14.22.35-1.1.75-1.57.21-2,3s1.14-6.83-.36,2.15S147.51,315.54,145.45,329.12Z"/><path class="cls-2" d="M154.4,265.42c6-3,12.86-3.1,18.37,1a14.74,14.74,0,0,0-6.18-.73c-.52,4.43-1,8.86-1.59,13.29q-.54-5.64-1.12-11.27c-1.14,7.28-2.25,14.58-3.85,21.78a177.85,177.85,0,0,1,.91-21.89c-3.29,8.09-3.37,17.68-4,26.22a17.54,17.54,0,0,1,3.56-2.92,52.08,52.08,0,0,0-6.91,10.46l3-3c-.16,3.07-.21,10.61-.06,13.68,1-3.53,1.76-11.57,2.46-15.17,0,4.47-.14,13.4-.47,17.86a10.16,10.16,0,0,1,4.55.48c-4.52.08-8.69,3.32-12.15,5.8-2,2.21-4,4.15-6.05,6.54a24.87,24.87,0,0,1,.67-2.4c1-3,2,0,3.6-7.33s4.94-34.56,6.26-44.84c-1,2-2.21,5.19-3.31,7.56.44-2.91,1-7.64,1.36-10.16S154.07,267.52,154.4,265.42Z"/><path class="cls-2" d="M167.52,319.22c.52-8.81,1-22.08,1.41-30.9.85,9.25,1.57,23,2.29,32.23Z"/><path class="cls-2" d="M175,322.74c-.12-5.3-.14-15-.24-20.28,1.14,5.28,2.26,15,3.4,20.31.94-3.81.58-7.85.24-11.71l1,.14c.69,6.22,1.33,12.4,2.11,18.64-.89-1-.93-1.15-2-2.33S176.23,324.12,175,322.74Z"/><path class="cls-6" d="M153.46,105.69l-3.86-6.3a9.41,9.41,0,0,1-1.29-3.27c-1.91-9.46,4.21-16.9,9.22-17.91a4.58,4.58,0,0,1,5.11,2.19l3.85,6.29.22.41.87-.17,3.92,6.41c-.77,9.9-5.39,15-9.92,16A7.67,7.67,0,0,1,153.46,105.69Z"/><path class="cls-6" d="M172.21,103.81l-3.74-6.18A10.56,10.56,0,0,1,167,93.8c-1-5.09,1.85-22.08,2.35-25.45l7.07.25L180.32,75c-.54,2.28-1.16,5.94-1.72,9.68l1.74-.35,3.92,6.42c-.77,9-3.13,14.59-7.18,15.41A4.51,4.51,0,0,1,172.21,103.81Z"/><path class="cls-6" d="M196.85,98.79l-.12-.16a8.18,8.18,0,0,1-5.53,4.7,6.39,6.39,0,0,1-6.74-3.26l-3.92-6.42a11.11,11.11,0,0,1-1.35-3.54c-1.75-8.66,3.4-17.09,8.36-18.09a4.7,4.7,0,0,1,4.88,1.92l.24-2,6.75.23,3.93,6.41a11.05,11.05,0,0,1-.14,1.12l1.79-.36,3.92,6.42c-.78,9-3.13,14.59-7.18,15.41C199.82,101.59,198.32,100.67,196.85,98.79Z"/><path class="cls-6" d="M205.3,69.43l6.76.27a8.56,8.56,0,0,1,4.73-3.31,3.34,3.34,0,0,1,3.64,1.4l3.92,6.42a5.45,5.45,0,0,1,.53,1.48,6.64,6.64,0,0,1,.15,1l.22-1.41,2.7-.54,3.92,6.42c-.82,9-3.13,14.59-7.18,15.41a4.51,4.51,0,0,1-4.88-2.42L216.08,88a8.81,8.81,0,0,1-.78-1.38l-1.19,12.07-6.84,1.38-3.93-6.46Z"/><path class="cls-4" d="M148.89,95.82c-1.82-9,4-16.08,8.63-17,2.18-.44,4.13.49,4.87,3.24l-2.86,2.48c-.22-1.09-.57-1.74-1.62-1.53-2.83.57-4.88,5-3.93,9.72.67,3.31,3,5.1,5.5,4.6s5-3.32,5.92-9.35l1.17-.24c-1,8.86-5.18,13.42-9.23,14.24C153.72,102.69,149.85,100.57,148.89,95.82Z"/><path class="cls-4" d="M169.82,69l5.48.21c-1.39,6.4-3.35,20.26-2.81,22.91.35,1.75,1,2.34,1.84,2.17,1.91-.38,3.22-4.91,3.83-8.88l1.17-.24c-.86,8.1-3,13-6.48,13.68-2.31.47-4.44-1.1-5.29-5.32C166.62,88.85,169.09,73.48,169.82,69Z"/><path class="cls-4" d="M179.78,89.82c-1.67-8.28,3.24-16.3,7.77-17.21,2.09-.42,4,.56,5.15,3.54l.47-3.54,5.25.17c-.9,6.12-1.63,12.61-1.28,14.35s1,2.34,1.84,2.17c1.92-.39,3.23-4.91,3.83-8.89l1.18-.23c-.86,8.1-3.05,13-6.49,13.68-2,.4-3.86-.72-4.89-3.78-1.12,3.45-3.3,5.43-5.65,5.91C184,96.59,180.73,94.57,179.78,89.82Zm8.48,1.6c1.83-.37,3.71-2.93,3.74-6.42,0-1,.07-2.1.15-3.25a13.67,13.67,0,0,0-.14-3.42c-.39-1.92-1.35-2.63-2.44-2.41-2.52.51-5.79,5.88-4.5,12.29C185.59,90.78,186.91,91.69,188.26,91.42Z"/><path class="cls-4" d="M205.84,70.05l5.62.23L211.28,72c1.33-2.81,3.59-4.67,5.5-5.05a2.56,2.56,0,0,1,3.28,2.28c.63,3.14-.84,8.88,0,13.23.36,1.74,1,2.34,1.8,2.18,1.92-.39,3.27-4.92,3.88-8.9l1.17-.23c-.9,8.11-3,13-6.49,13.68-2.3.46-4.44-1.14-5.29-5.33s.47-8.93,0-11.06c-.17-.83-.63-1.1-1.2-1-1.22.25-3,2.56-3.31,6.07L209.3,91.48,204,92.54Z"/><path class="cls-2" d="M194.53,110.1c7.72,0,7.74-12,0-12s-7.73,12,0,12Z"/><path class="cls-6" d="M226.84,113a11.9,11.9,0,0,1,.73,2.69l-.22-1.6.06.46a4.62,4.62,0,0,0,.51,2.32,4.68,4.68,0,0,0,1.24,1.93,6,6,0,0,0,8.49,0,5.86,5.86,0,0,0,1.76-4.25,17.06,17.06,0,0,0-1-4.74,6.61,6.61,0,0,0-2.76-3.58,6,6,0,0,0-8.21,2.15,5.83,5.83,0,0,0-.6,4.62Z"/><path class="cls-6" d="M233.92,85.58c-2.77,1.48-4.81,4.5-3.77,7.77a7.13,7.13,0,0,0,7.63,4.78c2.56-.18,5.18-1.72,5.79-4.4A6.28,6.28,0,0,0,240.81,87c-1.93-1.31-4.54-1.1-6.79-1.08a9,9,0,0,0-7.47,3.39,9.72,9.72,0,0,0-1.73,7.48c.45,3.33,2,6.07,5.33,7.18a6,6,0,0,0,7.38-4.19,6.35,6.35,0,0,0-.72-5.19c-1.83-2.54-5.3-4-8.21-2.15-2.51,1.62-4.11,5.49-2.15,8.21l.19.26L226,96.23l-.07.31,7.38-4.19-.31-.1,2.65,1.54-.23-.29L237,96.15c-.11-.27-.19-.55-.28-.83-.12-.59-.15-.64-.1-.17s0,.41,0,.06c.12-.64-.21.63-.27.76a3.42,3.42,0,0,1-2.12,1.78c-.44.13-1,.07-.23.12.34,0,.69,0,1,0a21.85,21.85,0,0,1,2.43.05l-3-.82.3.2,3-11.18c-1.11,0-.7.21,1.22.57l2.76,3.58-.09-.24v3.19l.09-.27-1.54,2.64c-.76.59-.84.7-.24.34a6.05,6.05,0,0,0,2.15-8.21,6.12,6.12,0,0,0-8.21-2.15Z"/><path class="cls-6" d="M221,101.86c7.72,0,7.73-12,0-12s-7.74,12,0,12Z"/><path class="cls-2" d="M159,161.6c0,.24.08.48.11.72l-.09-.66a18.63,18.63,0,0,1,.1,4,2.48,2.48,0,0,0,.73,1.76,2.58,2.58,0,0,0,1.77.74,2.5,2.5,0,0,0,1.77-.74l.39-.5a2.53,2.53,0,0,0,.34-1.26,21.32,21.32,0,0,0-.3-5.41,2.49,2.49,0,0,0-1.15-1.49,2.56,2.56,0,0,0-1.93-.26,2.53,2.53,0,0,0-1.49,1.15l-.25.6a2.5,2.5,0,0,0,0,1.33Z"/><path class="cls-2" d="M74.47,102.43c3.22,0,3.22-5,0-5s-3.22,5,0,5Z"/><path class="cls-2" d="M70.2,105a12.41,12.41,0,0,0-3.65,0c-.86.13-1.71.31-2.54.52a22.21,22.21,0,0,0-5.17,2,2.54,2.54,0,0,0-1.15,2.83,2.64,2.64,0,0,0,2.41,1.83c2.77.33,5.43-.93,7.84-2.13a2.53,2.53,0,0,0,.9-3.42,2.57,2.57,0,0,0-3.43-.89c-.5.25-1,.5-1.53.73l-.32.14c.52-.29.2-.08,0,0l-.8.29-.73.2c-.09,0-.81.13-.82.17s.63-.07.09,0h-.42a5.78,5.78,0,0,1-.83-.05l1.26,4.66c.35-.19.7-.37,1.06-.53l.31-.14-.29.12a2.17,2.17,0,0,1,.63-.24c.69-.26,1.39-.47,2.1-.66s1.44-.34,2.17-.47c.08,0,.8-.1.38-.06l.39,0,.53,0c.16,0,1,.09.23,0a2.75,2.75,0,0,0,1.93-.25A2.56,2.56,0,0,0,72,108.11a2.6,2.6,0,0,0-.25-1.93A2.44,2.44,0,0,0,70.2,105Z"/><path class="cls-2" d="M95.61,89.5a5.27,5.27,0,0,1-.52.1l.66-.09c-.5.06-1,0-1.5.07a10.55,10.55,0,0,0-1.93.27,9.21,9.21,0,0,0-3,1.3,2.7,2.7,0,0,0-1.15,1.5,2.6,2.6,0,0,0,.25,1.93,2.53,2.53,0,0,0,1.5,1.14,2.43,2.43,0,0,0,1.92-.25,8,8,0,0,1,1.29-.69l-.6.25a7.08,7.08,0,0,1,1.79-.48l-.66.09a24.12,24.12,0,0,0,3.28-.32,2.63,2.63,0,0,0,1.49-1.15,2.5,2.5,0,0,0-2.82-3.67Z"/><path class="cls-2" d="M96.66,95.73v1.44a19,19,0,0,1,0,2.39l.09-.67c-.09.41.24-.39.08-.14s.43-.45.08-.1l-.42.41c-.28.27-.58.52-.87.78a11.39,11.39,0,0,0-2,2.19,4.45,4.45,0,0,0-.68,1.73,2.7,2.7,0,0,0,2,3,4.28,4.28,0,0,0,4.28-2,2.51,2.51,0,0,0-.9-3.42,2.56,2.56,0,0,0-3.42.9l.24-.3A1.59,1.59,0,0,1,95,102c-.09.09-.06.07.11-.07s.2-.15,0,0c-.33.16.25-.1.26-.09s-.36.09-.37.1l.67-.09h-.11l.66.08-.1,0,1.1.64-.06-.06.65,1.1,0-.08.09.67v-.1l-.09.67c.07-.36-.32.59-.09.18.06-.11.12-.22.19-.33s.12-.17.18-.26-.43.51-.08.11a11.87,11.87,0,0,1,1-1,7.18,7.18,0,0,0,2.48-3.11,10.89,10.89,0,0,0,.15-3V95.73a2.5,2.5,0,1,0-5,0Z"/><path class="cls-2" d="M129.88,86a11.52,11.52,0,0,0,2.62.39,14.57,14.57,0,0,0,2.09-.13,2.75,2.75,0,0,0,1.77-.73,2.51,2.51,0,0,0,0-3.54,2.42,2.42,0,0,0-1.77-.73,12.49,12.49,0,0,1-2.93.06l.67.09a8.7,8.7,0,0,1-1.13-.23,2.49,2.49,0,0,0-3.07,1.75,2.52,2.52,0,0,0,.25,1.92,2.58,2.58,0,0,0,1.5,1.15Z"/><path class="cls-2" d="M136.24,86.58c3.21,0,3.22-5,0-5s-3.23,5,0,5Z"/><path class="cls-2" d="M137.47,89.37a3,3,0,0,0,0,2.9,3.58,3.58,0,0,0,1.31,1.31,9.6,9.6,0,0,0,2.27.87,5.2,5.2,0,0,0,3,.09,7.44,7.44,0,0,0,2.1-1.07A2.63,2.63,0,0,0,147.24,92a2.5,2.5,0,0,0-1.74-3.08,2.5,2.5,0,0,0-1.93.25,7.11,7.11,0,0,1-1.22.72l.6-.25a3.08,3.08,0,0,1-.66.18l.66-.09a2,2,0,0,1-.55,0l.67.09a8.56,8.56,0,0,1-2-.58l.6.26a3.92,3.92,0,0,1-.53-.29l.51.39a1.45,1.45,0,0,1-.22-.21l.39.51a.75.75,0,0,1-.07-.12l.25.59a.56.56,0,0,1,0-.12l.09.66a.24.24,0,0,1,0-.12l-.09.66,0-.06-.25.6,0-.06A2.6,2.6,0,0,0,142,90,2.5,2.5,0,0,0,139,88.23a2.56,2.56,0,0,0-1.5,1.14Z"/><path class="cls-2" d="M137.44,93.38c3.22,0,3.23-5,0-5s-3.22,5,0,5Z"/><path class="cls-2" d="M143.71,89.18a6.66,6.66,0,0,0-.39,1,5.47,5.47,0,0,0-.17,1,1.48,1.48,0,0,0,0,.42,4.15,4.15,0,0,0,.12.84,3.34,3.34,0,0,0,.16.38c.06.14.11.27.17.4l-.25-.6,0,.1-.09-.66a.21.21,0,0,1,0,.11l.09-.67a1,1,0,0,1-.07.25,2,2,0,0,0-.05,1,2,2,0,0,0,.3.93,1.9,1.9,0,0,0,.65.7,1.78,1.78,0,0,0,.85.44l.66.09a2.43,2.43,0,0,0,1.26-.34l.51-.39a2.5,2.5,0,0,0,.64-1.1,1,1,0,0,0,0-.16.29.29,0,0,0,0-.09l.09-.66s0,0,0-.06a3.43,3.43,0,0,0,0-.38,2.38,2.38,0,0,0-.07-.4v0l-.25-.59,0-.1.25.59a.86.86,0,0,1-.06-.23l.09.66a1.7,1.7,0,0,1,0-.45l-.09.66a2.41,2.41,0,0,1,.16-.6l-.25.59.06-.12a2,2,0,0,0,.3-.93,1.89,1.89,0,0,0-.05-1,1.85,1.85,0,0,0-.45-.85,1.8,1.8,0,0,0-.7-.64l-.59-.26a2.72,2.72,0,0,0-1.33,0l-.6.26a2.56,2.56,0,0,0-.9.89Z"/><path class="cls-2" d="M177,72.11c-.1.43-.22.85-.31,1.27a8.75,8.75,0,0,0-.18,1.25,4.92,4.92,0,0,0,.11,1.27,2.8,2.8,0,0,0,1.15,1.49,2,2,0,0,0,.93.3,1.89,1.89,0,0,0,1,0l.6-.25a2.48,2.48,0,0,0,.89-.9l.26-.59a2.72,2.72,0,0,0,0-1.33.29.29,0,0,1,0-.09l.09.66a2.73,2.73,0,0,1,0-.7l-.09.67c.08-.57.25-1.12.38-1.67a1.89,1.89,0,0,0,0-1,1.8,1.8,0,0,0-.3-.92,2.67,2.67,0,0,0-1.49-1.15l-.67-.09a2.43,2.43,0,0,0-1.26.34A2.56,2.56,0,0,0,177,72.11Z"/><path class="cls-2" d="M182.37,73.41l.28-.13a1.8,1.8,0,0,0,.7-.64,1.85,1.85,0,0,0,.45-.85,1.89,1.89,0,0,0,0-1,2,2,0,0,0-.3-.93l-.39-.5a2.52,2.52,0,0,0-1.1-.65l-.67-.09a2.54,2.54,0,0,0-1.26.35l-.28.12a1.93,1.93,0,0,0-.71.65,1.78,1.78,0,0,0-.44.85,1.86,1.86,0,0,0,0,1,1.9,1.9,0,0,0,.3.93l.39.51a2.5,2.5,0,0,0,1.1.64l.67.09a2.43,2.43,0,0,0,1.26-.34Z"/><path class="cls-2" d="M185.21,72.59a3.11,3.11,0,0,1,.41-.2l-.6.25a3.86,3.86,0,0,1,.73-.23,2.87,2.87,0,0,0,1.5-1.15,1.85,1.85,0,0,0,.29-.93,1.89,1.89,0,0,0,0-1l-.25-.6a2.48,2.48,0,0,0-.9-.89l-.6-.26a2.72,2.72,0,0,0-1.33,0,5.76,5.76,0,0,0-.59.18,9,9,0,0,0-1.14.51,1.91,1.91,0,0,0-.71.64,1.88,1.88,0,0,0-.44.85,1.9,1.9,0,0,0,0,1,2,2,0,0,0,.3.93l.39.51a2.5,2.5,0,0,0,1.1.64l.67.09a2.53,2.53,0,0,0,1.26-.34Z"/><path class="cls-2" d="M186.35,67.53a8.25,8.25,0,0,0-2.32.29,4.9,4.9,0,0,0-1.26.56c-.43.28-.76.63-1.16.94l.51-.39-.24.13.6-.25a8.58,8.58,0,0,0-1.46.63,5.07,5.07,0,0,0-1.16,1,8.67,8.67,0,0,0-1.53,2.67l-.09.67a1.88,1.88,0,0,0,.21,1,2.4,2.4,0,0,0,1,1.2,3.12,3.12,0,0,0,1.27.34,2.47,2.47,0,0,0,1.76-.73,4.42,4.42,0,0,0,.84-1.43c.06-.16.12-.33.19-.49l-.25.59a1.23,1.23,0,0,1,.14-.25l-.39.5.16-.15-.51.39a8.78,8.78,0,0,0,.76-.48,5.2,5.2,0,0,0,1-1.07l-.39.51a1.51,1.51,0,0,1,.21-.23l-.5.39a.88.88,0,0,1,.21-.12l-.6.25c.23-.08.47-.1.7-.18a3.49,3.49,0,0,0,.81-.37c.25-.17.48-.37.72-.56l-.51.39a1.06,1.06,0,0,1,.2-.12l-.6.25.14,0-.67.09h.08l-.67-4.91a6.42,6.42,0,0,0-1.88,1.09c-.27.22-.47.52-.74.73l.51-.39a5.81,5.81,0,0,0-1,.68,6.47,6.47,0,0,0-.73.91l.39-.51a2.12,2.12,0,0,1-.28.31l.5-.39a1.37,1.37,0,0,1-.2.13l.6-.25-.16,0,.67-.09h-.08l2.16,3.76a.93.93,0,0,1,.11-.19l-.39.51a1,1,0,0,1,.2-.2l-.51.39c.3-.23.65-.36.95-.58a5.48,5.48,0,0,0,.91-.76,3.38,3.38,0,0,1,.5-.5l-.51.39.23-.14-.59.25.25-.07-.67.09H184l-.66-.09h.09a2.67,2.67,0,0,0,1.92-.25,2.5,2.5,0,0,0,.9-3.42,2.44,2.44,0,0,0-1.5-1.15,3.37,3.37,0,0,0-1.67,0,3.6,3.6,0,0,0-1.24.65,4.14,4.14,0,0,0-.63.55,4.67,4.67,0,0,1-.44.45l.51-.39c-.26.19-.55.32-.83.49A3.71,3.71,0,0,0,179,72a2.57,2.57,0,0,0,0,2.52,2.44,2.44,0,0,0,2.16,1.24,4,4,0,0,0,.9-.14,3.36,3.36,0,0,0,1.05-.58,5.35,5.35,0,0,0,1-1.14l-.39.51a1.83,1.83,0,0,1,.33-.35l-.5.39a4.5,4.5,0,0,0,1.06-.77,5,5,0,0,1,.56-.57l-.5.39a3.4,3.4,0,0,1,.69-.41l-.59.26.08,0a2.64,2.64,0,0,0,1.49-1.15,2.52,2.52,0,0,0-2.15-3.76,3.06,3.06,0,0,0-1.54.41,8.48,8.48,0,0,0-.82.63l.5-.39a1,1,0,0,1-.2.13l.6-.26a2.75,2.75,0,0,1-.41.11,3.5,3.5,0,0,0-1,.36A4.2,4.2,0,0,0,180,70.73l.39-.51a1.21,1.21,0,0,1-.21.24l.5-.39a3.62,3.62,0,0,1-.43.24,3.39,3.39,0,0,0-1.13,1.1,7.23,7.23,0,0,0-.58,1.34l.25-.59a1.74,1.74,0,0,1-.15.26l.4-.51L179,72l4.18,2.43.09-.23-.25.6a5.29,5.29,0,0,1,.67-1.18l-.39.5a3.59,3.59,0,0,1,.58-.59l-.51.4a2.53,2.53,0,0,1,.57-.34l-.6.25a7.32,7.32,0,0,0,1.29-.54,11.74,11.74,0,0,0,1.09-.89l-.5.39a2.39,2.39,0,0,1,.52-.29l-.6.25a3.73,3.73,0,0,1,.93-.23l-.66.09a7.89,7.89,0,0,1,1-.06,2.59,2.59,0,0,0,1.77-.73,2.57,2.57,0,0,0,.73-1.77,2.53,2.53,0,0,0-.73-1.77,2.61,2.61,0,0,0-1.77-.73Z"/><path class="cls-2" d="M122.36,329.11a1,1,0,0,1,.13-.73,1.51,1.51,0,0,1,.48-.4,2.1,2.1,0,0,1,.73-.2,3.65,3.65,0,0,0-.35,1.28,5.31,5.31,0,0,0,0,1.2c0,.42.13.83.25,1.47h-3.45a1.3,1.3,0,0,0-.69-.31,2.84,2.84,0,0,1-.47-.16,1.2,1.2,0,0,1-.34-.23h0a.83.83,0,0,1-.22.24,1.21,1.21,0,0,1-.28.16,1,1,0,0,1-.38.07,1,1,0,0,1-.35-.06,2,2,0,0,1-.26-.14,1,1,0,0,1-.22-.2.66.66,0,0,0,.6-.31,1.52,1.52,0,0,0,.15-.73,5.54,5.54,0,0,1,.13-1.28,5,5,0,0,1,.33-1,4.91,4.91,0,0,1,.5-.84,8.32,8.32,0,0,1,.61-.69,1.13,1.13,0,0,0,.23-.38,1.7,1.7,0,0,0,.08-.3.4.4,0,0,0,0-.25,1.09,1.09,0,0,0,.26,0,1,1,0,0,0,.28,0,1.34,1.34,0,0,0,.38-.15q.26-.24.48-.48a3.14,3.14,0,0,0,.39-.51,2.44,2.44,0,0,0,.26-.57,2,2,0,0,0,.11-.67,1.48,1.48,0,0,0-.28-1,1.08,1.08,0,0,0-.77-.27,1.4,1.4,0,0,0-.5.07.64.64,0,0,0-.32.27,1.51,1.51,0,0,0-.17.52,6.3,6.3,0,0,0,0,.84,1.42,1.42,0,0,0,.16.72.65.65,0,0,0,.59.31,1.45,1.45,0,0,1-.22.21,1.26,1.26,0,0,1-.26.13,1,1,0,0,1-.35.06,1.07,1.07,0,0,1-.65-.22,1,1,0,0,1-.22-.24.83.83,0,0,1-.22.24.92.92,0,0,1-.28.15.86.86,0,0,1-.38.07,1,1,0,0,1-.35-.06,1.26,1.26,0,0,1-.26-.13,1.45,1.45,0,0,1-.22-.21.69.69,0,0,0,.6-.3,1.52,1.52,0,0,0,.15-.73,3.11,3.11,0,0,1,.21-1.24,1.82,1.82,0,0,1,.6-.78,2.47,2.47,0,0,1,.93-.41,6.4,6.4,0,0,1,1.21-.11,6.29,6.29,0,0,1,1.2.11,2.33,2.33,0,0,1,.93.42,2.13,2.13,0,0,1,.61.82,3.21,3.21,0,0,1,.22,1.29,2.06,2.06,0,0,1-.16.84,3.16,3.16,0,0,1-.43.69,4.48,4.48,0,0,1-.62.61l-.72.59a1.69,1.69,0,0,0-.19.33,1,1,0,0,0,0,.27.48.48,0,0,0,0,.22.69.69,0,0,0-.22,0,1.71,1.71,0,0,0-.63.16,4.64,4.64,0,0,0-.73,1.11,3.55,3.55,0,0,0-.29,1.5.84.84,0,0,0,.32.74,2.48,2.48,0,0,0,.68.31h.76a.72.72,0,0,0,.44-.34,1,1,0,0,0,.07-.55,1.62,1.62,0,0,0-.17-.58c-.09-.18-.18-.28-.28-.3a.81.81,0,0,1,.32-.16.52.52,0,0,1,.3,0A.56.56,0,0,1,122.36,329.11Z"/><path class="cls-2" d="M130.66,324.94a1.63,1.63,0,0,0,.11.56,1.78,1.78,0,0,0,.2.32.22.22,0,1,1,0,.42,1.45,1.45,0,0,0-.2.34,1.63,1.63,0,0,0-.11.56v.31a7.31,7.31,0,0,1-.22,2,3.35,3.35,0,0,1-.62,1.27,2.07,2.07,0,0,1-.94.67,3.63,3.63,0,0,1-1.22.19,3.57,3.57,0,0,1-1.21-.19,2.16,2.16,0,0,1-1-.67,3.34,3.34,0,0,1-.61-1.27,7.27,7.27,0,0,1-.23-2v-.31a1.88,1.88,0,0,0-.12-.56,1,1,0,0,0-.19-.34.22.22,0,1,1,0-.42,1.08,1.08,0,0,0,.19-.32,1.88,1.88,0,0,0,.12-.56v-.16a7.37,7.37,0,0,1,.23-2,3.29,3.29,0,0,1,.61-1.26,2.22,2.22,0,0,1,1-.66,3.57,3.57,0,0,1,1.21-.2,3.63,3.63,0,0,1,1.22.2,2.13,2.13,0,0,1,.94.66,3.3,3.3,0,0,1,.62,1.26,7.41,7.41,0,0,1,.22,2Zm-2-.78a6.26,6.26,0,0,0-.2-1.87.79.79,0,0,0-.8-.56.78.78,0,0,0-.79.56,5.87,5.87,0,0,0-.21,1.87V325a1.45,1.45,0,0,0,.11.53,1.17,1.17,0,0,0,.19.32.63.63,0,0,0,.26.2.56.56,0,0,0-.26.2,1,1,0,0,0-.19.32,1.56,1.56,0,0,0-.11.54v1a5.91,5.91,0,0,0,.21,1.87.78.78,0,0,0,.79.56.79.79,0,0,0,.8-.56,6.31,6.31,0,0,0,.2-1.87v-1a2.22,2.22,0,0,0-.11-.54,1.3,1.3,0,0,0-.18-.32.64.64,0,0,0-.27-.2.73.73,0,0,0,.27-.2,1.52,1.52,0,0,0,.18-.32,2,2,0,0,0,.11-.53Z"/><path class="cls-2" d="M200.13,329.11a.93.93,0,0,1,.14-.72,1.28,1.28,0,0,1,.47-.4,2,2,0,0,1,.73-.21,3.94,3.94,0,0,0-.35,1.28,6.06,6.06,0,0,0,0,1.21c.05.42.13.83.26,1.46h-3.46a1.25,1.25,0,0,0-.69-.3,2.7,2.7,0,0,1-.46-.16c-.14-.06-.25-.14-.12-.23h0a1.08,1.08,0,0,0-.44.24,1.47,1.47,0,0,1-.28.16,1.12,1.12,0,0,1-.38.06,1,1,0,0,1-.36-.06,1.17,1.17,0,0,1-.25-.13,1,1,0,0,1-.22-.2.66.66,0,0,0,.59-.31,1.57,1.57,0,0,0,.15-.74,6.12,6.12,0,0,1,.13-1.27,5.66,5.66,0,0,1,.34-1,4.14,4.14,0,0,1,.5-.85,5,5,0,0,1,.61-.68,1.36,1.36,0,0,0,.23-.39,1.33,1.33,0,0,0,.07-.29.41.41,0,0,0,0-.25,1,1,0,0,0,.25,0,1,1,0,0,0,.28,0,1.79,1.79,0,0,0,.39-.15l.48-.48a4.33,4.33,0,0,0,.39-.51,3.68,3.68,0,0,0,.26-.57,2.07,2.07,0,0,0,.1-.68,1.4,1.4,0,0,0-.28-1,1,1,0,0,0-.77-.27,1.43,1.43,0,0,0-.5.07.65.65,0,0,0-.31.26,1.38,1.38,0,0,0-.17.53,6.25,6.25,0,0,0-.05.83,1.55,1.55,0,0,0,.15.73.66.66,0,0,0,.59.31.83.83,0,0,1-.22.2.89.89,0,0,1-.26.14,1,1,0,0,1-.35.06,1.12,1.12,0,0,1-.38-.07,1.27,1.27,0,0,1-.26-.15.22.22,0,1,0-.44,0,1.46,1.46,0,0,1-.28.15,1.12,1.12,0,0,1-.38.07,1,1,0,0,1-.36-.06,1.17,1.17,0,0,1-.25-.14,1,1,0,0,1-.22-.2.66.66,0,0,0,.59-.31,1.5,1.5,0,0,0,.15-.73,3,3,0,0,1,.22-1.24,1.85,1.85,0,0,1,.6-.77,2.47,2.47,0,0,1,.93-.41,6.06,6.06,0,0,1,2.4,0,2.31,2.31,0,0,1,.94.42,2,2,0,0,1,.61.81,3.4,3.4,0,0,1,.22,1.29,2.17,2.17,0,0,1-.16.84,3,3,0,0,1-.44.7,4.48,4.48,0,0,1-.62.61c-.23.19-.47.39-.72.58a1.26,1.26,0,0,0-.18.34.71.71,0,0,0-.05.27.69.69,0,0,0,0,.22.65.65,0,0,0-.22,0,1.54,1.54,0,0,0-.63.16,4.42,4.42,0,0,0-.72,1.11,3.4,3.4,0,0,0-.29,1.5.84.84,0,0,0,.31.74,2.37,2.37,0,0,0,.69.3h.76a.65.65,0,0,0,.43-.33,1,1,0,0,0,.08-.55,1.62,1.62,0,0,0-.17-.58c-.09-.18-.19-.28-.29-.3a.9.9,0,0,1,.32-.17.58.58,0,0,1,.31,0A.56.56,0,0,1,200.13,329.11Z"/><path class="cls-2" d="M205.82,324.58a4.82,4.82,0,0,1,1.11.14,2.52,2.52,0,0,1,1,.52,2.75,2.75,0,0,1,.74,1,3.69,3.69,0,0,1,.29,1.6,6.7,6.7,0,0,1-.23,1.9,3.16,3.16,0,0,1-.66,1.19,2.28,2.28,0,0,1-1,.62,4.35,4.35,0,0,1-1.28.18h-.18a4.45,4.45,0,0,1-1.25-.16,2.3,2.3,0,0,1-1-.55,2.52,2.52,0,0,1-.63-1,4.28,4.28,0,0,1-.23-1.49,1.6,1.6,0,0,0-.15-.74.69.69,0,0,0-.62-.32.9.9,0,0,1,.23-.19,1.67,1.67,0,0,1,.27-.14,1.4,1.4,0,0,1,.38-.05.86.86,0,0,1,.38.07,1.47,1.47,0,0,1,.28.16l.23.23a1,1,0,0,1,.23-.23,1.13,1.13,0,0,1,.27-.16.94.94,0,0,1,.39-.07,1.36,1.36,0,0,1,.36.05,1.45,1.45,0,0,1,.28.14l.22.19a.7.7,0,0,0-.61.32,1.62,1.62,0,0,0-.16.74,4.1,4.1,0,0,0,.29,1.78.89.89,0,0,0,.8.55,1,1,0,0,0,1.1-.74,7.66,7.66,0,0,0,.25-2.31,4,4,0,0,0-.17-1.27,2.22,2.22,0,0,0-.44-.75,1.38,1.38,0,0,0-.59-.35,2.41,2.41,0,0,0-.64-.09,1.56,1.56,0,0,0-.66.12,1.19,1.19,0,0,0-.39.24,1,1,0,0,0-.25.35l-1.16-.45v-3.44s-.24-.55-.33-.74a.66.66,0,0,0-.59-.3L202,321a1,1,0,0,1,.26-.14,1,1,0,0,1,.35-.07.81.81,0,0,1,.37.08,1.13,1.13,0,0,1,.27.16,2.39,2.39,0,0,1,.23.22,1.72,1.72,0,0,1,.33-.22,2.84,2.84,0,0,1,.47-.16,3.9,3.9,0,0,1,.7-.1h3.22a5.31,5.31,0,0,0-.32.7,2.79,2.79,0,0,0-.14.72,2,2,0,0,0,.12.89.94.94,0,0,1-.37,0,1,1,0,0,1-.31-.16,1,1,0,0,1-.25-.37.43.43,0,0,1-.24.14.62.62,0,0,1-.27,0,1.38,1.38,0,0,1-.29-.08.56.56,0,0,0,.18-.17.84.84,0,0,0,.13-.27.62.62,0,0,0,0-.27.29.29,0,0,0-.2-.2c-.09,0-.31.11-.31.11h-.19a1.2,1.2,0,0,0-.71.23.82.82,0,0,0-.33.73v2l.39-.06.38,0Z"/><text class="cls-7" transform="matrix(-0.07, 1, -1, -0.07, 39.89, 245.86)">d</text><text class="cls-7" transform="translate(38.93 265.43) rotate(87.68)">i</text><text class="cls-7" transform="translate(39.37 276.85) rotate(80.91)">a</text><text class="cls-7" transform="translate(43.33 297.92) rotate(72.79)"> </text><text class="cls-7" transform="translate(48.14 312.75) rotate(65.23)">d</text><text class="cls-7" transform="matrix(0.54, 0.84, -0.84, 0.54, 56.92, 330.79)">e</text><text class="cls-7" transform="matrix(0.66, 0.75, -0.75, 0.66, 67.37, 346.23)">l</text><text class="cls-7" transform="translate(79.91 359.89) rotate(40.88)"> </text><text class="cls-7" transform="translate(92.08 370.06) rotate(32.44)">p</text><text class="cls-7" transform="matrix(0.92, 0.39, -0.39, 0.92, 108.68, 380.05)">e</text><text class="cls-7" transform="translate(126.37 387.21) rotate(13.51)">n</text><text class="cls-7" transform="translate(146.18 391.56) rotate(4.32)">s</text><text class="cls-7" transform="matrix(1, -0.06, 0.06, 1, 164.82, 392.68)">a</text><text class="cls-7" transform="translate(185.89 391.42) rotate(-12.75)">m</text><text class="cls-7" transform="matrix(0.92, -0.38, 0.38, 0.92, 212.41, 384.31)">i</text><text class="cls-7" transform="translate(223.84 379.43) rotate(-30.2)">e</text><text class="cls-7" transform="matrix(0.76, -0.65, 0.65, 0.76, 240.27, 369.38)">n</text><text class="cls-7" transform="translate(256.24 355.05) rotate(-51.21)">t</text><text class="cls-7" transform="matrix(0.5, -0.87, 0.87, 0.5, 268.82, 338.75)">o</text><text class="cls-7" transform="translate(278.21 321.41) rotate(-67.59)"> </text><text class="cls-7" transform="translate(284.02 306.9) rotate(-75.24)">s</text><text class="cls-7" transform="matrix(0.12, -0.99, 0.99, 0.12, 288.59, 288.02)">c</text><text class="cls-7" transform="translate(290.59 269.5) rotate(-87.87)">o</text><text class="cls-7" transform="translate(291.19 251.43) rotate(-90.71)">u</text><text class="cls-7" transform="translate(290.85 232.01) rotate(-94.63)">t</text><path class="cls-2" d="M47.3,225.87c-1-.1-2.13-.23-3.24-.41a47.07,47.07,0,0,1-21.41-9.76c0-4.31,1.12-5.72,2.08-6.25,4.47-2.44,15.75,8.44,21.13,14.68C46.48,224.85,47,225.46,47.3,225.87Z"/><path class="cls-2" d="M296.81,117.87a14.46,14.46,0,0,1,4.18,1.28,12,12,0,0,0,10.85.21c-2.38.53-6.36-.11-7.89-1.67,1.42.23,3.58-1.1,4.1-3.46s-.58-2.3-1.36-2a3.3,3.3,0,0,1-3-.31c-.64-.64-2.36-.79-2.66-1.38a10.31,10.31,0,0,0-2.08-1.89,2.16,2.16,0,0,1-.74-2.62,6.65,6.65,0,0,0,5.67.24,7.07,7.07,0,0,0-2.55-1.21c.92,0,5.18-3.2,4.57-4.74s-4.62-1.2-5.62-.84a6.14,6.14,0,0,1-3.6-.27c-.79-.35-.37-.65-.41-1.19s-.67-.23-.83-1,.25-1.5.95-1a2.45,2.45,0,0,0,2.95-.27c1.12-.88,1.79-2.65.83-3.18a7.44,7.44,0,0,1-2.78-3.12,3.27,3.27,0,0,0-2.58-1.57s.09-4.88,0-7.22S294.56,72,294,72s-.25,4.72-.29,6.41a17.65,17.65,0,0,1-1.4,5.45,11.15,11.15,0,0,0-.41,3.9,4.3,4.3,0,0,0-3.26-1,4,4,0,0,1,2.12,3.15c-.19.25-2,1.6-2,2.88-1.87-.8-5,0-5,0s3.38.43,4.5,1.83c-3-.21-4.13,1.27-4.13,1.27s1.75-.2,3.63-.3,3.93.2,4.57,1a5.89,5.89,0,0,1-4.65,2.85c-1.3,0-2.3,1-3.24,1s-1.88.46-4.49.61a10.84,10.84,0,0,0,3.35.67c1,0,1.28.87,2.74,1.17s1.69.13,3.1,1.28,3.16,1.13,3.19,1.41-.53.9-1.66,1.13a30,30,0,0,1-4.88.79c-1.41,0-2.13.64-3.37.8s-3.35-.59-3.88,0-.36,1.53,1.44,2.38,5.18,2.2,5.18,2.2-2.05,1-2.91,1.61a7.68,7.68,0,0,1-4,1.08c-2.1.15-5.15,0-5.15,0A7.38,7.38,0,0,0,275.8,117a2.67,2.67,0,0,1,2,1.08c.58.56,5.45.61,8.44.61s4-1,4-1-.31,1.41-1.3,1.56-1.11.56-3,1.43-2.5.9-5.32.87a69.94,69.94,0,0,1-7.89-.76c3,2.66,9,2.3,9,2.3a13.17,13.17,0,0,1-5.07,1.38c3.38,1.39,6.2.13,7,.26s1.8.95,3,1.36,1.58,1.2,3,1.76,2.69.31,2.58.57-1.05.23-2.08.41-1.77,1.2-3.85,1.33-5-.92-5.78-.54-.25,2.66.55,4,4.52,2.4,6.7,2.74,3.52,1.28,3.57,2.1-3.19,2.54-5.12,3.19a12.26,12.26,0,0,1,.95,1c1.45,1.65,2.08,3.77,3.38,5.49,1.6,2.12,3.71,2.72,6.13,3.49,3.06,1,7.42,2.18,7,6.25-.15,1.48-1,2.36-1.06,3.78a8,8,0,0,0,.3,2.16,3.65,3.65,0,0,1,2.59,3.64c0,1.3,0,2.6.08,3.9a3.61,3.61,0,0,0,.05.58,6,6,0,0,1,1.74,2.53,4.58,4.58,0,0,1-.35,3.33c.94,2,1.9,4,2.86,6a4,4,0,0,1,.25.68l1.42-.63c0-2.71,0-4.9,0-6.41s0-2.66,0-4.28c0,0,0-2.12-.15-4.25-.72-14.44-8.13-35.13-8.13-35.13C301.81,129.68,299.71,124.23,296.81,117.87Z"/><path class="cls-2" d="M292.09,137.94l-3.27-3.18a2.53,2.53,0,0,0-4.27,1.77,7.08,7.08,0,0,0,1.7,4.83c1.59,2,4.8-.2,4.18-2.43-.57-2,.08-3.58,1-5.37a10,10,0,0,0,1.34-6.38c-.3-1.84-3-2.41-4.18-1.1l-3.07,3.41,4.27,1.77a26.07,26.07,0,0,1,.17-4.67c.28-2.16-2.91-3.28-4.27-1.77a16.21,16.21,0,0,0-3.46,6.09,2.52,2.52,0,0,0,3.67,2.82,22.94,22.94,0,0,0,4.82-4.19l-4.17-2.43a3.49,3.49,0,0,1-2.51,2.16L287.1,131a4.94,4.94,0,0,1,.31-2.94l-4.66-1.26a36.74,36.74,0,0,1-.58,8.88,2.52,2.52,0,0,0,4.18,2.43,12.27,12.27,0,0,0,3.44-10c-.19-2.07-1-4.15-3.16-4.84a3.53,3.53,0,0,0-4.55,2.66,3,3,0,0,0,4.27,3.42,3.74,3.74,0,0,0,1.43-5,4.1,4.1,0,0,0-5.3-1.54,5.69,5.69,0,0,0-2.89,5.44c0,2.34,2.64,3.07,4.27,1.77a3.67,3.67,0,0,0,1.11-3.88c-.62-2.23-3.35-2.27-4.57-.6s-2.72,4.37-2.13,6.5a3,3,0,0,0,3.5,2.07,4.45,4.45,0,0,0,2.5-1.9c2.46-3.24,3.82-10-1.63-11.21-2.4-.51-5,1.21-4.89,3.81.15,3.12,3.42,3.87,5.94,3.41,4.42-.79,8.15-5.19,5.71-9.65l-2.82,3.67c2.13.58,4.78,0,5.26-2.48a2.53,2.53,0,0,0-2.41-3.17c-4.31.2-8,2.29-11.52,4.58l2.52,4.32a9.52,9.52,0,0,0,3.66-4.89,2.52,2.52,0,0,0-3.67-2.82,12.55,12.55,0,0,0-4.88,5.4c-1,2.14-1.69,5.3.75,6.8,2.66,1.62,5.22-1,6.39-3.19a10.27,10.27,0,0,0,1-7.28c-1.84-6.56-13.22-.31-8.53,4.78a4.7,4.7,0,0,0,6.86-.22c1.6-1.65,3-4.82,2.47-7.14-.78-3.67-5.09-2.68-7.29-1a8.84,8.84,0,0,0-3.61,7c0,1.46,1.65,3.05,3.16,2.41a16.26,16.26,0,0,0,9.17-9.43,2.53,2.53,0,0,0-1.74-3.07c-3-1.06-5.79,1.33-6.12,4.27-.26,2.34,2.81,3,4.27,1.77,1.76-1.56,3.16-3.84,2.23-6.23a4.12,4.12,0,0,0-5.73-2.27l3.76,2.16c.34-4.74-7.6-4.69-9.15-1.15l2.16-1.24c-1.92-.11-4.06.06-5.51,1.5a4.65,4.65,0,0,0-1.12,4.74,3.88,3.88,0,0,0,4.62,2.41,7.41,7.41,0,0,0,2.1-1,8.93,8.93,0,0,1,.77-.48c.55-.27-.21-.1.35-.06l-2.16-3.76-2.45,4c-.76,1.24-1.79,2.51-1.51,4a4.44,4.44,0,0,0,2.71,3c.79.39,2,.65,2.34,1.5a18.41,18.41,0,0,1,.72,4.14,11.94,11.94,0,0,0,1.32,4,7.1,7.1,0,0,0,7.28,3.67,2.52,2.52,0,0,0,1.75-3.08,2.56,2.56,0,0,0-3.07-1.74c-.8.11-1.64-1.28-1.88-1.85a22.34,22.34,0,0,1-1-5,6.92,6.92,0,0,0-2.25-4.45,9.7,9.7,0,0,0-2.05-1.23l-.81-.38-.47-.26c-.4-.28-.4-.25,0,.1l.35,1.26c-.2.54-.15.54.13,0l.49-.8.86-1.4,1.84-3a2.53,2.53,0,0,0-2.16-3.76,5.2,5.2,0,0,0-2.87.74c-.27.15-.52.32-.77.48l-.51.32q-.44.2-.15.12c-.44.1-.33.12.33,0a1.18,1.18,0,0,1,.87,1s-.05.25-.09.23a11,11,0,0,0,2,0,2.42,2.42,0,0,0,2.16-1.23c.26-.6-.09.12-.2.07s.25-.07.37-.09c.49-.06-.23,0,.25,0h.36c.38,0,.28,0-.3-.16l-.64-1.1v-.08c-.15,2.05,2.19,2.89,3.76,2.16,0,0-1.38-.13-1.37-.12-.25-.3.15-.53-.15-.34s-.71.82-1,1.1l4.27,1.77c0,.08-.07.28-.09.42s-.91-.15-.12.13l-1.75-3.08a10.74,10.74,0,0,1-5.68,5.94l3.17,2.41c0-1.46,1.33-3.66,3-3.49l-1.26-.34.27.16-.89-.9c-.34-.55-.07-.37-.23,0a7.26,7.26,0,0,0-.27,1c-.16.43-.43.77-.61,1.19.24-.53-.3.32-.31.31s.36,0,.37.05a.62.62,0,0,1,.2.89c-.19.61-.18.8,0,.58.1,0,.73-.47.81-.53.42-.36.19.21-.08-.1l-.72-.61a.69.69,0,0,1,0,.25c-.16.45,0,1.12-.1,1.63a6,6,0,0,1-.58,1.55,4.86,4.86,0,0,1-.52.81c-.76.94-.1-.46,1,.34l.9.9c-.18-.28-.2-.26-.08,0s.09.31.07-.06c-.12.2.09-.21.1-.27a7.16,7.16,0,0,1,.77-1.66,7.49,7.49,0,0,1,2.46-2.42l-3.67-2.83a3.78,3.78,0,0,1-1.36,1.9,2.59,2.59,0,0,0-.9,3.43,2.53,2.53,0,0,0,3.42.89c2.73-1.76,5.65-3.75,9-3.9L287,118.45h0l.9-.89c.58,0,.58,0,0-.11a2.53,2.53,0,0,0-2.82,3.67,1.27,1.27,0,0,1-.48,1.46,3.26,3.26,0,0,1-1.14.59c-.47.16-1.2.08-1.63.27.09,0-.25,2.64-.22,2.48,0,0-.15.09-.12-.08s0,.24,0,.36a3.88,3.88,0,0,1,0,.48,5.59,5.59,0,0,1-.61,1.67,8.1,8.1,0,0,1-.42.7c-.38.57-.46.38,0,.27h1.33l-.25-.08,1.49,1.15-.17-.25.34,1.27c-.1-1,.92-2.47,1.54-3.32l-4.57-.59.18-1,4.26,1.77c0,.1,0-1.3.21-1.12a.47.47,0,0,1-.45.25q-2.12-1.16-.18-2.52l2.43.64.08.1.34,1.26c-.12.21-.12.17,0-.12l-.65,1.1c-.78.48-1.36.41-1.73-.21l.1.38a8.54,8.54,0,0,0,.07.86,9.21,9.21,0,0,1-.15,2.16,6.44,6.44,0,0,1-1.87,3.55L287,137a43.16,43.16,0,0,0,.75-10.21c-.11-2.26-3.56-3.69-4.66-1.27a10.74,10.74,0,0,0-.81,6.79,2.54,2.54,0,0,0,3.08,1.75,8.66,8.66,0,0,0,6-5.65c.82-2.32-2.57-4.3-4.18-2.44a18.78,18.78,0,0,1-3.81,3.42l3.67,2.82a10.36,10.36,0,0,1,2.18-3.88L285,126.59a26.07,26.07,0,0,0-.17,4.67c.11,2,2.74,3.47,4.27,1.77l3.07-3.41-4.18-1.11a4.14,4.14,0,0,1-.65,2.17c-.46.92-1,1.83-1.34,2.79a10.38,10.38,0,0,0-.35,6.78l4.18-2.43a1.93,1.93,0,0,1-.23-1.29l-4.27,1.77,3.27,3.18c2.31,2.24,5.85-1.29,3.54-3.54Z"/><path class="cls-2" d="M281.64,112.82a6.35,6.35,0,0,0,0,1,10.62,10.62,0,0,0,.26,1.58,1.71,1.71,0,0,0,.45.85,1.9,1.9,0,0,0,.7.65,1.79,1.79,0,0,0,.93.29,1.85,1.85,0,0,0,1,0l.6-.25a2.59,2.59,0,0,0,.9-.9l.25-.6a2.5,2.5,0,0,0,0-1.33,5,5,0,0,1-.15-.77l.08.66a8.25,8.25,0,0,1-.05-1.11,1.89,1.89,0,0,0-.21-1,1.85,1.85,0,0,0-.52-.8,1.82,1.82,0,0,0-.8-.52,1.8,1.8,0,0,0-1-.21l-.66.09a2.41,2.41,0,0,0-1.1.64l-.4.5a2.54,2.54,0,0,0-.34,1.27Z"/><path class="cls-6" d="M235.24,199.73l-.14-.15a8.77,8.77,0,0,1-5.38,5.6,6.83,6.83,0,0,1-7.52-2.75l-4.88-6.4a17.5,17.5,0,0,1-1.81-3.61c-2.81-9,1.76-18.57,6.93-20.17a5,5,0,0,1,5.4,1.51c.15-5.12.41-9.73.49-11.4l7.56-.5,4.87,6.4c-.32,2.49-.59,6.45-.77,10.49l1.81-.56,4.87,6.4c.15,9.61-1.74,15.87-6,17.18C238.71,202.39,237,201.57,235.24,199.73Z"/><path class="cls-6" d="M246.55,210.11l-4.89-6.45-.17-36.17,4.95-.09a7.52,7.52,0,0,1,4.19-4c2.68-.83,4.93.51,6.67,2.91l4.69,6.11a16.22,16.22,0,0,1,2.36,4.89c2.17,7,1.15,16.86-6.25,19.16a5.88,5.88,0,0,1-5.39-.67,132,132,0,0,0,1.91,14.49Z"/><path class="cls-6" d="M275.41,168a9.13,9.13,0,0,1,3.71,3.13l4.69,6.15a7.41,7.41,0,0,1,1.29,2.54c1.53,5-2.63,9-7.17,10.44-4.27,1.32-7.81-.17-9.35-2.23l-4.94-6.48a3.57,3.57,0,0,1-.69-1.43l.4-5.6a45,45,0,0,0,0-8.21c-.38-3.31,1.67-7,6.35-8.24l3.22,2.84,4.87,6.4A8.62,8.62,0,0,0,275.41,168Z"/><path class="cls-8" d="M230,191.07c-.82,3.78-2.93,6.13-5.38,6.89-3.13,1-6.78-.83-8.31-5.78-2.68-8.63,1.68-17.7,6.4-19.16,2.18-.68,4.28.17,5.87,3.21.13-5.37.42-10.68.56-13.12l5.86-.37c-.78,7-1.36,21.92-.5,24.69.56,1.82,1.33,2.38,2.19,2.11,2-.62,2.9-5.58,3.11-9.88l1.23-.38c0,8.72-1.83,14.16-5.42,15.27C233.49,195.2,231.39,194.21,230,191.07ZM225.48,193c1.91-.6,3.64-3.52,3.28-7.24-.08-1.07-.15-2.25-.18-3.48a15.43,15.43,0,0,0-.53-3.62c-.62-2-1.72-2.65-2.85-2.3-2.64.82-5.53,6.89-3.46,13.57C222.57,192.56,224.07,193.39,225.48,193Z"/><path class="cls-8" d="M246.08,187.11A125.05,125.05,0,0,0,248,203l-6.31-.13-.17-34.59,4.65-.09c1-2.06,2.29-3.5,3.93-4,3.49-1.08,6.4,2.34,7.84,7,2.08,6.72,1.07,16-5.74,18.1A4.93,4.93,0,0,1,246.08,187.11Zm3.49-2c4.17-1.3,5.2-8.73,3.84-13.14-.69-2.22-2-3.66-3.8-3.1s-2.93,2.75-3.14,6.4c-.09,2-.13,3.92-.11,5.91a8.62,8.62,0,0,0,.34,2.08C247.13,184.6,248,185.57,249.57,185.09Z"/><path class="cls-8" d="M263.76,180l.4-5.45a51.25,51.25,0,0,0,0-8.31c-.34-2.88,1.36-6,5.31-7.27l1.7,1.46c-2,.63-3.79,2.22-3.13,4.35.94,3,9.42,2.46,11.39,8.81,1.37,4.41-2.36,8.1-6.63,9.43C268.09,184.47,264.45,182.21,263.76,180Zm8.27-2.07c1.45-.45,2.48-1.61,2.06-3-.76-2.45-5.75-3-8.33-5.52l-.14,2.13a6.76,6.76,0,0,0,.27,2.46C267.06,177.77,270,178.56,272,177.92Z"/></g></g></svg>