<svg xmlns="http://www.w3.org/2000/svg" viewBox="0 0 352.5 106.63"><defs><style>.cls-1{fill:#fff;}.cls-2{fill:#bb2221;}</style></defs><g id="Layer_2" data-name="Layer 2"><g id="Layer_1-2" data-name="Layer 1"><path class="cls-1" d="M120.72,20.48C120.72,9.21,127.5,0,138.81,0a17.18,17.18,0,0,1,12.08,4.56l1.2,6.64h-.73c-1.14-6.14-7.07-9.62-12.55-9.62-9.49,0-14.27,9.39-14.27,18.9s4.77,18.91,14.27,18.91c7.48,0,12.36-4.43,13.07-13h.74l-.82,10c-3.23,3.13-7.36,4.57-13,4.57-11.31,0-18.1-9.21-18.1-20.49Z"/><path class="cls-1" d="M163.88,40.4v-.73c.56,0,2.81,0,2.81-3.43V4.73c0-3.44-2.25-3.44-2.81-3.44V.56h9.45v.73c-.58,0-2.81,0-2.81,3.35V38.83h11.59c5.48,0,6.48-7.86,6.83-12.44h.73l-1.16,14Z"/><path class="cls-1" d="M231.46,36.18c1,3.16,3.47,3.49,4,3.49v.73H224.34v-.73c2.47,0,3.52-1.12,2.8-3.37L223,23.52H209.8l-4.45,12.79c-.79,2.24.23,3.36,2.71,3.36v.73H199.5v-.73c.56,0,2.85,0,4.06-3.5l11-31.51c1.17-3.35-2.27-3.37-2.83-3.37V.56h7.93ZM210.35,22h12.18L216.69,3.77Z"/><path class="cls-1" d="M278,.56v.73c-.57,0-2.82,0-2.82,3.44V40.41h-.62L250.26,5.07V36.24c0,3.43,2.23,3.43,2.81,3.43h1.69v.74h-9.12v-.74c.57,0,2.82,0,2.82-3.43V4.67c0-3.38-2.25-3.38-2.82-3.38V.56h6.46l21.23,31.32V4.73c0-3.44-2.25-3.44-2.81-3.44h-1.69V.56Z"/><path class="cls-1" d="M162.92,54.56v1c-.73,0-3.67,0-3.67,4.48v46.62h-.82L126.74,60.46v40.72c0,4.49,2.92,4.49,3.68,4.49h2.21v1H120.71v-1c.74,0,3.68,0,3.68-4.49V59.93c0-4.41-2.93-4.41-3.67-4.41v-1h8.43l27.74,40.93V60c0-4.48-2.94-4.48-3.67-4.48H151v-1Z"/><path class="cls-1" d="M176.16,54.56h8.76L200,80.35l12.84-20.87c1.69-2.74,1.51-3.95-.82-3.95v-1h9.89v1c-.73,0-3.89,0-6.75,4.64l-13.91,22.5v18.52c0,4.49,2.94,4.49,3.68,4.49v1H192.56v-1c.73,0,3.67,0,3.67-4.49V82.66l-13.8-23.34c-2.62-3.8-5.58-3.8-6.27-3.8Z"/><path class="cls-1" d="M235.14,106.62v-1c.73,0,3.67,0,3.67-4.49V60c0-4.48-2.94-4.48-3.67-4.48v-1h32.15l1.59,8.68h-1c-.45-2.41-1.33-6.62-6-6.62H243.81v20.3H259.7c4.8,0,4.47-2.19,4.48-3.68h1v9.41h-1c0-1.48.32-3.67-4.48-3.67H243.81v25.58H259.7c7.16,0,8.46-10.27,8.92-16.25h1l-1.52,18.31Z"/><path class="cls-1" d="M316.12,94.08c2.76,8.49,7.51,11.59,13,11.59v1c-8.77,0-14.9-6.46-18.33-14.94-2.35-5.81-6.76-12-12.48-12-3.32,0-5,1.08-5,4.12v17.35c.07,4.49,2.94,4.49,3.68,4.49h2.21v1H284.63v-1c.73,0,3.67,0,3.67-4.49V60c0-4.49-2.94-4.49-3.67-4.49v-1h19.11c7.64,0,15.67,3.36,15.67,12.27,0,7.81-5.65,11.23-12,12,5.4,2.28,6.81,9.38,8.72,15.24ZM302,76.92c10.49,0,12.43-5.86,12.43-10.07,0-6.73-4.24-10.23-12.43-10.23H293.3v23c1.37-1.69,4.77-2.67,8.68-2.67Z"/><path class="cls-1" d="M340.15,106.62v-1c.73,0,3.67,0,3.67-4.49V60c0-4.48-2.94-4.48-3.67-4.48v-1H352.5v1c-.74,0-3.68,0-3.68,4.48v41.18c0,4.49,2.94,4.49,3.68,4.49v1Z"/><path class="cls-2" d="M60.74,52.05l35-13a.91.91,0,0,0,.52-.48l4.78-10.36a.37.37,0,0,0-.08-.41l-6.4-6.22a.48.48,0,0,0-.53-.1L60.79,35.58c-.21.09-.31,0-.31-.19V7.8a.35.35,0,0,0-.38-.39h-12a.13.13,0,0,0-.13.13V21.08a.36.36,0,0,1-.2.32L24.65,32.87a1.33,1.33,0,0,0-.63.67l-2.53,6a.37.37,0,0,0,.16.46l5.8,3.05a.68.68,0,0,0,.62,0L47.7,34.32c.21-.09.31,0,.31.21V52.92c0,.09,0,.12-.12.1l-2.07-.44a.3.3,0,0,1-.24-.3V41.08c0-.26-.13-.34-.38-.24l-9.31,3.93a.39.39,0,0,0-.26.38l-.15,4.6c0,.17-.08.23-.24.19L8.36,43.36a.56.56,0,0,0-.52.12L.09,50a.26.26,0,0,0-.06.32l5.43,9.35a.87.87,0,0,0,.58.43l41.81,9a.21.21,0,0,1,.16.2v30l12.48-1.77v-45Z"/><path class="cls-2" d="M75.54,22.33,62.87,27.56a.19.19,0,0,1-.26-.18V15a.2.2,0,0,1,.11-.18L75.39,9.05a.19.19,0,0,1,.27.17V22.16a.17.17,0,0,1-.11.17Z"/><path class="cls-2" d="M62.86,56.74l17.48,4.18a.2.2,0,0,1,.16.19V75.27a.2.2,0,0,1-.24.19L62.77,71.8a.19.19,0,0,1-.16-.19V56.93a.19.19,0,0,1,.24-.19Z"/></g></g></svg>