<svg xmlns="http://www.w3.org/2000/svg" viewBox="0 0 128.69 116.87"><defs><style>.cls-1{fill:#bb2221;}</style></defs><g id="Capa_2" data-name="Capa 2"><g id="Layer_2" data-name="Layer 2"><path class="cls-1" d="M77.33,56.83l44.56-16.52a1.2,1.2,0,0,0,.67-.62l6.09-13.19a.46.46,0,0,0-.1-.52l-8.16-7.92a.6.6,0,0,0-.67-.12L77.39,35.86c-.26.11-.39,0-.39-.25V.49a.43.43,0,0,0-.12-.37A.49.49,0,0,0,76.52,0H61.28a.16.16,0,0,0-.15.16V17.4a.46.46,0,0,1-.26.41L31.38,32.41a1.66,1.66,0,0,0-.8.85l-3.23,7.66a.46.46,0,0,0,.21.58L35,45.38a.82.82,0,0,0,.79,0l25-11.14c.27-.12.41,0,.41.26l0,23.42c0,.11,0,.15-.16.13l-2.63-.57a.39.39,0,0,1-.31-.38V42.86c0-.33-.16-.44-.47-.31l-11.87,5a.51.51,0,0,0-.33.48l-.18,5.86c0,.21-.1.29-.31.24l-34.2-8.38a.72.72,0,0,0-.67.16L.11,54.17a.32.32,0,0,0-.07.4L7,66.48a1.1,1.1,0,0,0,.74.54L60.91,78.47a.25.25,0,0,1,.21.26v38.14L77,114.62V57.29Z"/><path class="cls-1" d="M96.17,19,80,25.64a.24.24,0,0,1-.33-.22V9.67a.23.23,0,0,1,.14-.22L96,2.08a.24.24,0,0,1,.34.22V18.77a.23.23,0,0,1-.15.22Z"/><path class="cls-1" d="M80,62.79l22.25,5.33a.25.25,0,0,1,.2.24v18a.25.25,0,0,1-.3.25L79.91,82a.24.24,0,0,1-.2-.24V63a.25.25,0,0,1,.31-.24Z"/></g></g></svg>