<svg xmlns="http://www.w3.org/2000/svg" viewBox="0 0 474.76 176.78"><defs><style>.cls-1{fill:#1d1d1b;}</style></defs><g id="Capa_2" data-name="Capa 2"><g id="Layer_2" data-name="Layer 2"><path class="cls-1" d="M0,176.78V84.85H0c23.75-2,34.75-5.95,40.28-9.54a39.21,39.21,0,0,1,8.11-4.4c8-3.13,14.41-1.91,39.76-12.3,22.87-9.39,68.37-30.13,86-45,3.32-2.81,6.76-7.32,12.61-7.84,4.54-.41,9.43,1.57,15.7-1.31.82-.37.64-.36,1.74-.91C213.3-1,222.1,0,225.67.42a41.88,41.88,0,0,1,6.8,1.43h0c7.33.68,11.58.38,14.13-.06a11.9,11.9,0,0,1,4.66,0c2.3.48,3.43,1.48,5.11,2.32,2.77,1.38,5.28,1.43,8.28,1.48C271.18,5.69,272,3,280.35,2.2a27.62,27.62,0,0,1,7.8.31,26.33,26.33,0,0,1,3.37.86h0c60.43,31.2,90,47.07,103.73,54.92a99,99,0,0,0,9.38,4.82c17.61,7.85,28.09,6.13,44,10.39a98.87,98.87,0,0,1,26.09,11.34v81.93a10,10,0,0,1-10,10Z"/></g></g></svg>