<svg xmlns="http://www.w3.org/2000/svg" viewBox="0 0 472 139.46"><defs><style>.cls-1{fill:#5c1b16;}</style></defs><g id="Capa_2" data-name="Capa 2"><g id="Layer_2" data-name="Layer 2"><path class="cls-1" d="M438.68,0c1.27,1.92,3.18,4.85,5.37,8.51a226.68,226.68,0,0,1,22.4,52.19c1.67,5.73,3.74,13.61,5.55,23.17a7,7,0,0,1-5,1.43c-2.46-.4-3.19-2.47-5.19-3.73-3.54-2.23-8.46-.28-13,1.53A41.18,41.18,0,0,0,434,93.2a13.82,13.82,0,0,0-7.09,6c-2.14,3.81-4.25,7.44-6.3,10.87l-3.38,4.79-1.57,1.85-4.31,4.17-5.9-1,9.46-13.1a.5.5,0,0,0-.52-.77,6.77,6.77,0,0,0-3.47,2c-3.58,3.72-6.44,8.11-10.87,11Q388,126.75,373.58,122q-5.26-1.33-10.44-2.82a13.07,13.07,0,0,0-9.75.87l-1.48.6a13.52,13.52,0,0,1-8.62,1.27c-3-.58-5.94-3.22-9-4.05a7.67,7.67,0,0,0-4.67.22l-2.81.76-5,1.61-7.15,2.41a7.69,7.69,0,0,1-3.2.58,1,1,0,0,0-1.41-.13,13.68,13.68,0,0,1-3.4,1.82c-1.78.58-2.64,1.45-2.61,2.6l-1,1.73q-1.78.77-4.68-.68a7.21,7.21,0,0,0-3.87-2,1.46,1.46,0,0,0-1.16.32,31.37,31.37,0,0,1-4.94,3.28,13,13,0,0,0-4.48,4.77l-2.1.85a14.46,14.46,0,0,0-11.17,2.64,6.61,6.61,0,0,1-1.82.82l-6.08-2.14a4.67,4.67,0,0,0-3.18-1.69c-1.13-1-2.36-1.52-3.52-2.36a1.69,1.69,0,0,0-1.94-.24c-1.57.84-2.49,2.61-4.11,3.65a1.62,1.62,0,0,0-1.08.52,4.26,4.26,0,0,1-1.3-.65c-3.15-1.77-6-3.41-8.66-5a6.77,6.77,0,0,0-4.38-.54l-5.42,1.55a.14.14,0,0,1-.18-.08.16.16,0,0,1,0-.19c3.64-2.56,7.17-3.05,11.48-1,2.21,1,4.63,2.1,7.23,3.11a1.53,1.53,0,0,0,1.75-.48l2.17-2.68a4.58,4.58,0,0,1,4.83-1.07l5.63,2.21a13.63,13.63,0,0,0,19.13-2.53,131.73,131.73,0,0,1,11.18-12.28,10.87,10.87,0,0,1,9.11-2.38c5.92,1.09,11.73-.83,16.66-4.37,6.9-5,13.72-10,22.7-9.08A52.75,52.75,0,0,1,356.64,106a24.14,24.14,0,0,0,11.42,2.23l5.53-2.26,4.47-1.82a59.59,59.59,0,0,1,6.17-1.68,7.86,7.86,0,0,0,3.36-1.66,7.22,7.22,0,0,0,3.07-2.71,11.76,11.76,0,0,1,3.42-4.85c1.32-1.09,3.47-1.44,5.12-1.81,4.69-1,7.52-4.94,7.87-9.71a2.27,2.27,0,0,0-.63-1.82,2,2,0,0,0-.32-1.64c-1.2-1.93-2.41-3.85-3.65-5.74a3.23,3.23,0,0,1,.54-4.16l2.46-2.21a3.39,3.39,0,0,0,1.1-2.63,15.41,15.41,0,0,0-1.46-6.12,11.85,11.85,0,0,1-.83-4.46c0-.63-.29-.71-.73-.27A14.4,14.4,0,0,0,399.33,61a.22.22,0,0,1-.27.21l-.3,0a.19.19,0,0,1-.19-.22q.36-9.54,8.24-14a9.71,9.71,0,0,1,7.6-.89c3.15.84,9.62,3,12.07.44a2.85,2.85,0,0,0,0-3.83l-3.35-3.78a2.17,2.17,0,0,1-.54-1.25c-.15-2.15.92-3.59,3.24-4.34,1.22-.39,1.28-.93.17-1.59a6.91,6.91,0,0,1-2.63-2.63,5.35,5.35,0,0,1-.62-1.79c-.68-4.22,13.93-13.17,17.7-20.25.17-.32.29-.6.18-.79-1.24-2-24,15-24.22,16.76,0,0,0,.57-.21.6s-.23-.15-.39-.5c-1.32-2.82,1.33-8.7,2.74-10.95,1.72-2.74,4.16-6.86,9.46-9.64A22.42,22.42,0,0,1,438.68,0Z"/><path class="cls-1" d="M369.38,99.27c-.9-.68-2.77.52-4.35.45a15,15,0,0,1-4.87-1.08q-7-2.76-14.05-5.6c-5.92-2-9.66-3.86-15.6-.14a2,2,0,0,1-1.15.32c-3.62,0-5.41-.75-9,2L317.26,98a21.72,21.72,0,0,1-6.79,5.14,10.86,10.86,0,0,1-7,1.46,1,1,0,0,1-.71-1.49c1.13-1.87,2.11-4.94-1-5.54a11,11,0,0,0-5.61.85l-4.65,1.84-2.3,1-4.8,2.28-3.62,1.67a4.51,4.51,0,0,1-3.18.72,26.46,26.46,0,0,1-11.34-1.92l-11.63-6-2.65-1a12.89,12.89,0,0,0-8.17,2.41l-5.43,2.83q-7.73.95-7.9-5.6a3.8,3.8,0,0,0-3.68-1.43,47.55,47.55,0,0,1-5.41,1.89,4.83,4.83,0,0,1-3.16-.13q-3.63-2.62-2.6-6.16c-.73-1.94-1.67-2.65-2.8-2.17l-2.62.09a1.17,1.17,0,0,1-1.1-1.62c.93-2.16,2.29-3.72,2.75-7.43a5.61,5.61,0,0,0-.43-3.34,5.53,5.53,0,0,0-3.79-2.74q-2.88-.55-6.5,2.64c-.22.19-.37.27-.45.22s0-.44,0-.5c.18-.79-.69-7.6-5.06-9.65-1.47-.69-3.34-.35-7.11-.14a15.26,15.26,0,0,0-3.94.79c-1,.35-1.84.79-2.66,1.14a35.11,35.11,0,0,0-9.46,6l-5.1,9.43a131,131,0,0,0-3.74,16.25,7.57,7.57,0,0,1-3.2,5.13,1.43,1.43,0,0,1-1.08.25,5.15,5.15,0,0,1-3.29-2.26,5.52,5.52,0,0,0-2.38-1.71.72.72,0,0,0-.9.29,7.44,7.44,0,0,1-5.71,3.2q-6.82.23-11.56-6c-1.75-3.34-3.61-6.68-5.58-10.05a15,15,0,0,0-5.7-5.69c-1.69-1-1.6-1.24.29-.73,6.17,1.67,11.73,6.73,15.44,11.59a.39.39,0,0,0,.66-.09c.27-.7.21-1-.18-.8a31.82,31.82,0,0,0-9.72-12.28,19.1,19.1,0,0,0-14.2-2.14,10,10,0,0,0-4.32,2.56.66.66,0,0,1-1,0l-2.69-2.51a1.68,1.68,0,0,0-.82-.41c-6.06-1.26-10.68,4.81-17.14,2.94a1.19,1.19,0,0,1-.81-.72,7.31,7.31,0,0,1-.46-4.42c-.06-1.68-.14-3.3-.25-4.88-.66-10-8.45-11-16.08-6.26-5.27,3.26-7.63-3.34-8.24-7a11.09,11.09,0,0,1,.64-5.69,59.55,59.55,0,0,0,2.83-10.2,18.87,18.87,0,0,0-3.1-14.37c-3.15-4.66-7.91-2.78-12.28-1.88a1.26,1.26,0,0,1-1.51-1.14q-.71-9.06-10.6-8.48c-3,.18-4.72,3.34-6.48,5.34a1.15,1.15,0,0,1-1.85-.17,26.52,26.52,0,0,0-2.79-3.36c-1.14-1.32-1.47-1.14-1.59-1.68-.45-2,3.58-5.14,7.8-6.31,2.42-.67,4.64-1.06,5.44-.5q3.48,2.43,8.83,1.71c6.38-.83,5,6.58,10.46,8.44,14.3,4.86,22.16,18.26,14.4,32.63q-1.38,2.55.52.36,9.18-10.57,4.32-22.27c-2.94-7.07-9.38-11.87-16.43-14.44a3.39,3.39,0,0,1-2.22-2.59A10.07,10.07,0,0,0,49.86,5.05c-4.23.36-4.38-1.61-7.31-2.19a27.4,27.4,0,0,0-8-.34A201.55,201.55,0,0,0,2.18,87.09a44.16,44.16,0,0,0,10-.38C19.8,85.52,30.5,83.12,37.44,82a4.11,4.11,0,0,1,1.79.35c3.38,1.2,4.83,6.24,4.8,9.7.24,1.26.47,2.63.69,4.09,1.52,10.07,7.76,7.32,15,7.64.75,0,1.07.42.94,1.17l-.27,1.59a1.73,1.73,0,0,0,.17,1.07c2.69,5.06,6.51,8.78,12.24,7.1l4-3.45a.8.8,0,0,1,1.25.32c1.16,3,3,7.54,7.09,6.56a44.63,44.63,0,0,0,10.76-4.44q8.05-4.44,16.22-8.88a10.49,10.49,0,0,1,11.45.44q10.36,6.67,20.47,12.87A29.58,29.58,0,0,0,160.48,122c.9-.06.93.11.14.51q-12.36,6.22-25.06-.35-4.47-3.51-10-7.81c-.64-.5-.82-.37-.54.4a2.22,2.22,0,0,0,.37.47l3.68,3.19,3.79,3.51a24.06,24.06,0,0,0,9.43,5.73l6.27,1.44L157,129l.12-2.44a1.18,1.18,0,0,1,.61-1l6.85-3.66a.69.69,0,0,1,1,.7,6.48,6.48,0,0,0,.19,3.25q6.87-3.81,18.39-11.25t23.06-2.89l9.16,4.12c4,1.28,5.92.15,8.61-2.67a1.26,1.26,0,0,1,1.2-.38A69.78,69.78,0,0,1,237.58,116a15.56,15.56,0,0,0,11.57-.25,12.48,12.48,0,0,1,3.94-2.28,7.54,7.54,0,0,1,4.38,0,54.59,54.59,0,0,1,10.23,3.67c4.16,1.23,12.34,2.86,16,.07q2.31-1.73,4.57-3.21a.32.32,0,0,0,.13-.48s0,0-.07-.08a.14.14,0,0,0-.18,0c-2.62,1.26-5.2,3.48-8.17,3.42a18,18,0,0,1-8.15-1.89c-1.33-.69-1.25-1.07.25-1.15,4.92-.25,9.32-3.31,13.64-5.32,3-1.41,8.65-1.89,12.07-.3,6.75,3.1,12.5,3.09,18.53-2,2.78-2.33,5.54-4.76,8.27-7.32a1.7,1.7,0,0,1,1.19-.47l4.79,0a2.51,2.51,0,0,0,1.46-.44c3.34-2.26,5.72-2.78,9.88-1.64q8.46,2.33,16.64,4l9.89.33c.06,0,1.23-.37,1.23-.9A.72.72,0,0,0,369.38,99.27Z"/><path class="cls-1" d="M138.16,74.77a12.06,12.06,0,0,0-1.7,0c-.58.11-2.7-.65-9-4a10,10,0,0,1-2-1.64,15.63,15.63,0,0,1-2-2.69l-4.5-4a7.54,7.54,0,0,0-6.33-.1c-2.39,1.05-4.73,2-7,2.87a1.72,1.72,0,0,1-2.16-.88c-.55-1.15-1.06-2.72-2.34-3.22a2.1,2.1,0,0,0-2,.2.91.91,0,0,1-1.33-.5c-1.1-3.47-2-8.07-6.42-8.44,0,0,0,0-.06.05l0,.3a.3.3,0,0,0,.24.37c3.9,1.05,3.57,5.83,4,9q.42,2.67,3.23,2.22a1,1,0,0,1,1.34,1.05c.18,1.95,1.46,3.3,3.86,4.06a34.66,34.66,0,0,0,10.4-3.1c1.61-.71,3.25-.33,4.94,1.15l5.21,4.43a35.23,35.23,0,0,0,13.52,4.31.4.4,0,0,0,.5-.4l0-.46C138.67,74.93,138.52,74.76,138.16,74.77Z"/><path class="cls-1" d="M462,92.88a6.88,6.88,0,0,1-5.18,4.53q-2.4.45-.46,2a1.91,1.91,0,0,1,.77,1.59c0,4.78-5,3.42-7.83,3.77a.84.84,0,0,0-.59,1.32c2,3-.49,4.42-3.11,4.87a59.91,59.91,0,0,1-12.05.88,6,6,0,0,1-3.4-.75c-.37-.24-.33-.38.11-.41l5.22-.43,6-.56,3.68-1a1,1,0,0,0,.54-1.49,3.06,3.06,0,0,1-.56-2.2l.16-.82c2-3.5,5.69-2.07,8.93-2.47.56-.07.64-.31.28-.73l-.91-1a1.76,1.76,0,0,1-.44-.92c-.43-2.73,2.5-3.66,4.8-4.23.79-.2,1.61-1,2.46-2.38l.36-4a.83.83,0,0,1,.67-.79l.41-.1a.46.46,0,0,1,.56.39,13.62,13.62,0,0,1-.41,4.92Z"/><path class="cls-1" d="M35.08,94.92c2.57,5.45,4.72,9.81,9.74,13a.43.43,0,0,1,.14.59.24.24,0,0,1-.35.1,18.27,18.27,0,0,1-6.79-5.61,38.38,38.38,0,0,0-7.53-7.63q-4.62-2.73-8.59-1.32a37.11,37.11,0,0,0-8.23,4.13L0,105.79c0-1.42.08-2.91.19-4.46C.36,99,.64,96.77,1,94.72c3.67-1.36,9.35-3.41,16-5.56a20.12,20.12,0,0,1,6.56-1.06,12.6,12.6,0,0,1,11.59,6.82Z"/><path class="cls-1" d="M362.21,82.65l4,.61c.28-.67.56-1.21.76-1.59A11.26,11.26,0,0,1,369,79.08a.91.91,0,0,1,1-.19l5.5,2.08c2.87-.91,4.18-2.82,3.91-5.76a1.31,1.31,0,0,1,.34-1,11.72,11.72,0,0,0,2.89-5.48,71.64,71.64,0,0,0-1.93-7.5A5,5,0,0,1,382,56.6a13.35,13.35,0,0,1,4.13-5l5.46-4.2A19.61,19.61,0,0,0,398.82,33c0-.45-.18-.66-.63-.6s-.82.63-1.17,1.7a18.59,18.59,0,0,1-3,7.29,9.93,9.93,0,0,1-4,3.86L384.16,49l-2.4,2.16a19.23,19.23,0,0,0-4.6,5.7,13.07,13.07,0,0,0-.15,7.93c.84,3,.11,4.67-2.16,5l-2.22,2.93a.9.9,0,0,1-1,.37,1.82,1.82,0,0,1-1.18-.88,8.25,8.25,0,0,0-4.59,2.18,8,8,0,0,0-1.32,1.8A21,21,0,0,0,362.21,82.65Z"/><path class="cls-1" d="M201.18,123.13a14.2,14.2,0,0,1,6,4,.56.56,0,0,0,.84.12,4.62,4.62,0,0,1,4.12-.67l2.77,1.84a.8.8,0,0,0,1,0c2.82-2,5.47-4.22,9-4.8a22.52,22.52,0,0,1,10.6.67.17.17,0,0,1,.13.24h0a.2.2,0,0,1-.28.18q-9.84-2-16.45,5.63c-2,2.34-4.33,2.8-6.93,1.39a1,1,0,0,0-1.15.1q-4.08,3.21-8.21-.44l-3.15-2.71a1.22,1.22,0,0,0-2,.59c-.79,2.63-1.9,5.39-5.51,4.31l-1.83-.53-.92-.3a6.09,6.09,0,0,1-.26-2.91l.65-.79c1.71.66,2.72.54,3-.35,1.59-4.45,4.44-6.32,8.52-5.59Z"/></g></g></svg>