<svg xmlns="http://www.w3.org/2000/svg" viewBox="0 0 495.34 78.9"><defs><style>.cls-1{font-size:73.54px;fill:#1d1d1b;font-family:Krylon-Regular, Krylon;letter-spacing:0.13em;}.cls-2{letter-spacing:0.15em;}.cls-3{fill:#bb2221;}</style></defs><g id="Capa_2" data-name="Capa 2"><g id="Layer_2" data-name="Layer 2"><text class="cls-1" transform="translate(0 62.8)">C<tspan class="cls-2" x="56.4" y="0">LAN NYERI</tspan></text><path class="cls-3" d="M231.9,42.13l11.44-4.24a.3.3,0,0,0,.17-.16l1.56-3.38a.14.14,0,0,0,0-.14l-2.1-2a.14.14,0,0,0-.17,0l-10.87,4.6c-.06,0-.1,0-.1-.06v-9a.09.09,0,0,0,0-.1.12.12,0,0,0-.09,0h-3.91a0,0,0,0,0,0,.05V32a.14.14,0,0,1-.07.11l-7.57,3.74a.47.47,0,0,0-.2.22l-.83,2a.13.13,0,0,0,.05.15l1.9,1a.2.2,0,0,0,.2,0l6.42-2.86c.06,0,.1,0,.1.07v6a0,0,0,0,1-.05,0L227,42.3a.09.09,0,0,1-.08-.09V38.55c0-.09,0-.12-.12-.08l-3,1.28a.14.14,0,0,0-.08.13l-.05,1.5s0,.07-.08.06l-8.78-2.15a.21.21,0,0,0-.17,0l-2.53,2.12a.08.08,0,0,0,0,.1l1.77,3.06a.3.3,0,0,0,.19.14l13.66,2.94a.06.06,0,0,1,.06.06v9.8l4.07-.58V42.25Z"/><path class="cls-3" d="M236.73,32.42l-4.14,1.71a.06.06,0,0,1-.08-.06V30a.05.05,0,0,1,0-.06l4.14-1.89a.05.05,0,0,1,.08.05v4.23a.05.05,0,0,1,0,.06Z"/><path class="cls-3" d="M232.59,43.66,238.3,45a.06.06,0,0,1,0,.06v4.63a.06.06,0,0,1-.08.06l-5.72-1.19a.07.07,0,0,1-.05-.07v-4.8a.06.06,0,0,1,.08-.06Z"/></g></g></svg>